G04*
G04 #@! TF.GenerationSoftware,Altium Limited,Altium Designer,23.8.1 (32)*
G04*
G04 Layer_Color=2752767*
%FSLAX25Y25*%
%MOIN*%
G70*
G04*
G04 #@! TF.SameCoordinates,B5059604-2DC0-44BE-8EC4-76C519F24F96*
G04*
G04*
G04 #@! TF.FilePolarity,Positive*
G04*
G01*
G75*
%ADD107C,0.00200*%
%ADD108C,0.00267*%
D107*
X169500Y94200D02*
X168700Y95800D01*
X170300D01*
X169500Y94200D01*
Y104200D02*
X168700Y105800D01*
X170300D01*
X169500Y104200D01*
Y114200D02*
X168700Y115800D01*
X170300D01*
X169500Y114200D01*
Y124200D02*
X168700Y125800D01*
X170300D01*
X169500Y124200D01*
Y134200D02*
X168700Y135800D01*
X170300D01*
X169500Y134200D01*
Y144200D02*
X168700Y145800D01*
X170300D01*
X169500Y144200D01*
X149500D02*
X148700Y145800D01*
X150300D01*
X149500Y144200D01*
Y134200D02*
X148700Y135800D01*
X150300D01*
X149500Y134200D01*
Y124200D02*
X148700Y125800D01*
X150300D01*
X149500Y124200D01*
Y114200D02*
X148700Y115800D01*
X150300D01*
X149500Y114200D01*
Y104200D02*
X148700Y105800D01*
X150300D01*
X149500Y104200D01*
Y94200D02*
X148700Y95800D01*
X150300D01*
X149500Y94200D01*
X159500Y144200D02*
X158700Y145800D01*
X160300D01*
X159500Y144200D01*
Y134200D02*
X158700Y135800D01*
X160300D01*
X159500Y134200D01*
Y124200D02*
X158700Y125800D01*
X160300D01*
X159500Y124200D01*
Y114200D02*
X158700Y115800D01*
X160300D01*
X159500Y114200D01*
Y104200D02*
X158700Y105800D01*
X160300D01*
X159500Y104200D01*
Y94200D02*
X158700Y95800D01*
X160300D01*
X159500Y94200D01*
X161700Y11700D02*
Y13300D01*
X163300D01*
Y11700D01*
X161700D01*
Y161700D02*
Y163300D01*
X163300D01*
Y161700D01*
X161700D01*
X11700Y11700D02*
Y13300D01*
X13300D01*
Y11700D01*
X11700D01*
Y161700D02*
Y163300D01*
X13300D01*
Y161700D01*
X11700D01*
X72500Y56700D02*
X72900Y57100D01*
X73300D01*
X72900Y57500D01*
X73300Y57900D01*
X72900D01*
X72500Y58300D01*
X72100Y57900D01*
X71700D01*
X72100Y57500D01*
X71700Y57100D01*
X72100D01*
X72500Y56700D01*
X22691Y77210D02*
X23091Y77610D01*
X23491D01*
X23091Y78010D01*
X23491Y78410D01*
X23091D01*
X22691Y78810D01*
X22291Y78410D01*
X21891D01*
X22291Y78010D01*
X21891Y77610D01*
X22291D01*
X22691Y77210D01*
X25572Y75772D02*
X25972Y76172D01*
X26372D01*
X25972Y76572D01*
X26372Y76972D01*
X25972D01*
X25572Y77372D01*
X25172Y76972D01*
X24772D01*
X25172Y76572D01*
X24772Y76172D01*
X25172D01*
X25572Y75772D01*
X66500Y88700D02*
X66900Y89100D01*
X67300D01*
X66900Y89500D01*
X67300Y89900D01*
X66900D01*
X66500Y90300D01*
X66100Y89900D01*
X65700D01*
X66100Y89500D01*
X65700Y89100D01*
X66100D01*
X66500Y88700D01*
X44288Y78859D02*
X44688Y79259D01*
X45088D01*
X44688Y79659D01*
X45088Y80059D01*
X44688D01*
X44288Y80459D01*
X43888Y80059D01*
X43488D01*
X43888Y79659D01*
X43488Y79259D01*
X43888D01*
X44288Y78859D01*
X66500Y115200D02*
X66900Y115600D01*
X67300D01*
X66900Y116000D01*
X67300Y116400D01*
X66900D01*
X66500Y116800D01*
X66100Y116400D01*
X65700D01*
X66100Y116000D01*
X65700Y115600D01*
X66100D01*
X66500Y115200D01*
X102000Y93700D02*
X102400Y94100D01*
X102800D01*
X102400Y94500D01*
X102800Y94900D01*
X102400D01*
X102000Y95300D01*
X101600Y94900D01*
X101200D01*
X101600Y94500D01*
X101200Y94100D01*
X101600D01*
X102000Y93700D01*
X39787Y123229D02*
X40187Y123629D01*
X40587D01*
X40187Y124029D01*
X40587Y124429D01*
X40187D01*
X39787Y124829D01*
X39387Y124429D01*
X38987D01*
X39387Y124029D01*
X38987Y123629D01*
X39387D01*
X39787Y123229D01*
X42145Y117899D02*
X42544Y118299D01*
X42944D01*
X42544Y118699D01*
X42944Y119099D01*
X42544D01*
X42145Y119499D01*
X41745Y119099D01*
X41344D01*
X41745Y118699D01*
X41344Y118299D01*
X41745D01*
X42145Y117899D01*
X32500Y126200D02*
X32900Y126600D01*
X33300D01*
X32900Y127000D01*
X33300Y127400D01*
X32900D01*
X32500Y127800D01*
X32100Y127400D01*
X31700D01*
X32100Y127000D01*
X31700Y126600D01*
X32100D01*
X32500Y126200D01*
X38633Y118948D02*
X39033Y119348D01*
X39433D01*
X39033Y119748D01*
X39433Y120148D01*
X39033D01*
X38633Y120548D01*
X38233Y120148D01*
X37833D01*
X38233Y119748D01*
X37833Y119348D01*
X38233D01*
X38633Y118948D01*
X29500Y120624D02*
X29900Y121024D01*
X30300D01*
X29900Y121424D01*
X30300Y121824D01*
X29900D01*
X29500Y122224D01*
X29100Y121824D01*
X28700D01*
X29100Y121424D01*
X28700Y121024D01*
X29100D01*
X29500Y120624D01*
X44488Y81106D02*
X44888Y81506D01*
X45289D01*
X44888Y81906D01*
X45289Y82306D01*
X44888D01*
X44488Y82705D01*
X44089Y82306D01*
X43688D01*
X44089Y81906D01*
X43688Y81506D01*
X44089D01*
X44488Y81106D01*
X66719Y77673D02*
X67119Y78073D01*
X67519D01*
X67119Y78473D01*
X67519Y78873D01*
X67119D01*
X66719Y79273D01*
X66319Y78873D01*
X65919D01*
X66319Y78473D01*
X65919Y78073D01*
X66319D01*
X66719Y77673D01*
X66366Y54118D02*
X66766Y54518D01*
X67166D01*
X66766Y54918D01*
X67166Y55318D01*
X66766D01*
X66366Y55718D01*
X65966Y55318D01*
X65566D01*
X65966Y54918D01*
X65566Y54518D01*
X65966D01*
X66366Y54118D01*
X69500Y55700D02*
X69900Y56100D01*
X70300D01*
X69900Y56500D01*
X70300Y56900D01*
X69900D01*
X69500Y57300D01*
X69100Y56900D01*
X68700D01*
X69100Y56500D01*
X68700Y56100D01*
X69100D01*
X69500Y55700D01*
X74594Y55551D02*
X74994Y55951D01*
X75394D01*
X74994Y56351D01*
X75394Y56751D01*
X74994D01*
X74594Y57151D01*
X74195Y56751D01*
X73795D01*
X74195Y56351D01*
X73795Y55951D01*
X74195D01*
X74594Y55551D01*
X45000Y86200D02*
X45400Y86600D01*
X45800D01*
X45400Y87000D01*
X45800Y87400D01*
X45400D01*
X45000Y87800D01*
X44600Y87400D01*
X44200D01*
X44600Y87000D01*
X44200Y86600D01*
X44600D01*
X45000Y86200D01*
X69096Y77145D02*
X69497Y77545D01*
X69897D01*
X69497Y77945D01*
X69897Y78345D01*
X69497D01*
X69096Y78745D01*
X68696Y78345D01*
X68296D01*
X68696Y77945D01*
X68296Y77545D01*
X68696D01*
X69096Y77145D01*
X79633Y75567D02*
X80033Y75967D01*
X80433D01*
X80033Y76367D01*
X80433Y76767D01*
X80033D01*
X79633Y77167D01*
X79233Y76767D01*
X78833D01*
X79233Y76367D01*
X78833Y75967D01*
X79233D01*
X79633Y75567D01*
X77216Y111300D02*
X77616Y111700D01*
X78016D01*
X77616Y112100D01*
X78016Y112500D01*
X77616D01*
X77216Y112900D01*
X76816Y112500D01*
X76416D01*
X76816Y112100D01*
X76416Y111700D01*
X76816D01*
X77216Y111300D01*
X64500Y133111D02*
X64900Y133511D01*
X65300D01*
X64900Y133911D01*
X65300Y134311D01*
X64900D01*
X64500Y134711D01*
X64100Y134311D01*
X63700D01*
X64100Y133911D01*
X63700Y133511D01*
X64100D01*
X64500Y133111D01*
X49500Y130700D02*
X49900Y131100D01*
X50300D01*
X49900Y131500D01*
X50300Y131900D01*
X49900D01*
X49500Y132300D01*
X49100Y131900D01*
X48700D01*
X49100Y131500D01*
X48700Y131100D01*
X49100D01*
X49500Y130700D01*
X76772Y118396D02*
X77172Y118796D01*
X77572D01*
X77172Y119196D01*
X77572Y119596D01*
X77172D01*
X76772Y119996D01*
X76372Y119596D01*
X75972D01*
X76372Y119196D01*
X75972Y118796D01*
X76372D01*
X76772Y118396D01*
X110700Y136298D02*
X111100D01*
X111500Y136698D01*
X111900Y136298D01*
X112300D01*
Y136698D01*
X111900Y137098D01*
X112300Y137498D01*
Y137898D01*
X111900D01*
X111500Y137498D01*
X111100Y137898D01*
X110700D01*
Y137498D01*
X111100Y137098D01*
X110700Y136698D01*
Y136298D01*
X114700Y134589D02*
X115101D01*
X115500Y134989D01*
X115901Y134589D01*
X116300D01*
Y134989D01*
X115901Y135389D01*
X116300Y135789D01*
Y136189D01*
X115901D01*
X115500Y135789D01*
X115101Y136189D01*
X114700D01*
Y135789D01*
X115101Y135389D01*
X114700Y134989D01*
Y134589D01*
X119213Y134987D02*
X119613Y135387D01*
X120013D01*
X119613Y135787D01*
X120013Y136187D01*
X119613D01*
X119213Y136587D01*
X118813Y136187D01*
X118413D01*
X118813Y135787D01*
X118413Y135387D01*
X118813D01*
X119213Y134987D01*
X129700Y133200D02*
X130100D01*
X130500Y133600D01*
X130900Y133200D01*
X131300D01*
Y133600D01*
X130900Y134000D01*
X131300Y134400D01*
Y134800D01*
X130900D01*
X130500Y134400D01*
X130100Y134800D01*
X129700D01*
Y134400D01*
X130100Y134000D01*
X129700Y133600D01*
Y133200D01*
X135000Y160200D02*
X135400Y160600D01*
X135800D01*
X135400Y161000D01*
X135800Y161400D01*
X135400D01*
X135000Y161800D01*
X134600Y161400D01*
X134200D01*
X134600Y161000D01*
X134200Y160600D01*
X134600D01*
X135000Y160200D01*
X102044Y135783D02*
X102445D01*
X102845Y136183D01*
X103244Y135783D01*
X103645D01*
Y136183D01*
X103244Y136583D01*
X103645Y136983D01*
Y137383D01*
X103244D01*
X102845Y136983D01*
X102445Y137383D01*
X102044D01*
Y136983D01*
X102445Y136583D01*
X102044Y136183D01*
Y135783D01*
X75700Y133200D02*
X76100D01*
X76500Y133600D01*
X76900Y133200D01*
X77300D01*
Y133600D01*
X76900Y134000D01*
X77300Y134400D01*
Y134800D01*
X76900D01*
X76500Y134400D01*
X76100Y134800D01*
X75700D01*
Y134400D01*
X76100Y134000D01*
X75700Y133600D01*
Y133200D01*
X106512Y109688D02*
X106912Y110088D01*
X107312D01*
X106912Y110488D01*
X107312Y110888D01*
X106912D01*
X106512Y111288D01*
X106112Y110888D01*
X105712D01*
X106112Y110488D01*
X105712Y110088D01*
X106112D01*
X106512Y109688D01*
X104191Y109758D02*
X104591Y110158D01*
X104991D01*
X104591Y110558D01*
X104991Y110958D01*
X104591D01*
X104191Y111358D01*
X103791Y110958D01*
X103391D01*
X103791Y110558D01*
X103391Y110158D01*
X103791D01*
X104191Y109758D01*
X113000Y105509D02*
X113400Y105909D01*
X113800D01*
X113400Y106309D01*
X113800Y106709D01*
X113400D01*
X113000Y107109D01*
X112600Y106709D01*
X112200D01*
X112600Y106309D01*
X112200Y105909D01*
X112600D01*
X113000Y105509D01*
X83500Y115700D02*
X83900Y116100D01*
X84300D01*
X83900Y116500D01*
X84300Y116900D01*
X83900D01*
X83500Y117300D01*
X83100Y116900D01*
X82700D01*
X83100Y116500D01*
X82700Y116100D01*
X83100D01*
X83500Y115700D01*
X87199Y116700D02*
X87599Y117100D01*
X87999D01*
X87599Y117500D01*
X87999Y117900D01*
X87599D01*
X87199Y118300D01*
X86799Y117900D01*
X86399D01*
X86799Y117500D01*
X86399Y117100D01*
X86799D01*
X87199Y116700D01*
X144200Y80200D02*
X144600D01*
X145000Y80600D01*
X145400Y80200D01*
X145800D01*
Y80600D01*
X145400Y81000D01*
X145800Y81400D01*
Y81800D01*
X145400D01*
X145000Y81400D01*
X144600Y81800D01*
X144200D01*
Y81400D01*
X144600Y81000D01*
X144200Y80600D01*
Y80200D01*
X149920Y71700D02*
X150320D01*
X150720Y72100D01*
X151120Y71700D01*
X151520D01*
Y72100D01*
X151120Y72500D01*
X151520Y72900D01*
Y73300D01*
X151120D01*
X150720Y72900D01*
X150320Y73300D01*
X149920D01*
Y72900D01*
X150320Y72500D01*
X149920Y72100D01*
Y71700D01*
X140009Y79200D02*
X140409D01*
X140809Y79600D01*
X141209Y79200D01*
X141609D01*
Y79600D01*
X141209Y80000D01*
X141609Y80400D01*
Y80800D01*
X141209D01*
X140809Y80400D01*
X140409Y80800D01*
X140009D01*
Y80400D01*
X140409Y80000D01*
X140009Y79600D01*
Y79200D01*
X139757Y88730D02*
X140157D01*
X140557Y89130D01*
X140957Y88730D01*
X141357D01*
Y89130D01*
X140957Y89530D01*
X141357Y89930D01*
Y90330D01*
X140957D01*
X140557Y89930D01*
X140157Y90330D01*
X139757D01*
Y89930D01*
X140157Y89530D01*
X139757Y89130D01*
Y88730D01*
X142000Y91700D02*
X142400Y92100D01*
X142800D01*
X142400Y92500D01*
X142800Y92900D01*
X142400D01*
X142000Y93300D01*
X141600Y92900D01*
X141200D01*
X141600Y92500D01*
X141200Y92100D01*
X141600D01*
X142000Y91700D01*
X152670Y88730D02*
X153070D01*
X153470Y89130D01*
X153870Y88730D01*
X154270D01*
Y89130D01*
X153870Y89530D01*
X154270Y89930D01*
Y90330D01*
X153870D01*
X153470Y89930D01*
X153070Y90330D01*
X152670D01*
Y89930D01*
X153070Y89530D01*
X152670Y89130D01*
Y88730D01*
X129200Y69200D02*
X129600D01*
X130000Y69600D01*
X130400Y69200D01*
X130800D01*
Y69600D01*
X130400Y70000D01*
X130800Y70400D01*
Y70800D01*
X130400D01*
X130000Y70400D01*
X129600Y70800D01*
X129200D01*
Y70400D01*
X129600Y70000D01*
X129200Y69600D01*
Y69200D01*
X26200Y85700D02*
X26600D01*
X27000Y86100D01*
X27400Y85700D01*
X27800D01*
Y86100D01*
X27400Y86500D01*
X27800Y86900D01*
Y87300D01*
X27400D01*
X27000Y86900D01*
X26600Y87300D01*
X26200D01*
Y86900D01*
X26600Y86500D01*
X26200Y86100D01*
Y85700D01*
X30200Y75200D02*
X30600D01*
X31000Y75600D01*
X31400Y75200D01*
X31800D01*
Y75600D01*
X31400Y76000D01*
X31800Y76400D01*
Y76800D01*
X31400D01*
X31000Y76400D01*
X30600Y76800D01*
X30200D01*
Y76400D01*
X30600Y76000D01*
X30200Y75600D01*
Y75200D01*
X67335Y70200D02*
X67735Y70600D01*
X68135D01*
X67735Y71000D01*
X68135Y71400D01*
X67735D01*
X67335Y71800D01*
X66935Y71400D01*
X66535D01*
X66935Y71000D01*
X66535Y70600D01*
X66935D01*
X67335Y70200D01*
X52500Y29700D02*
X52900Y30100D01*
X53300D01*
X52900Y30500D01*
X53300Y30900D01*
X52900D01*
X52500Y31300D01*
X52100Y30900D01*
X51700D01*
X52100Y30500D01*
X51700Y30100D01*
X52100D01*
X52500Y29700D01*
X45600Y13600D02*
Y13200D01*
X46400D01*
Y13600D01*
X46800D01*
Y14400D01*
X46400D01*
Y14800D01*
X45600D01*
Y14400D01*
X45200D01*
Y13600D01*
X45600D01*
X111000Y101700D02*
X111400Y102100D01*
X111800D01*
X111400Y102500D01*
X111800Y102900D01*
X111400D01*
X111000Y103300D01*
X110600Y102900D01*
X110200D01*
X110600Y102500D01*
X110200Y102100D01*
X110600D01*
X111000Y101700D01*
X88809Y63700D02*
X89209Y64100D01*
X89609D01*
X89209Y64500D01*
X89609Y64900D01*
X89209D01*
X88809Y65300D01*
X88409Y64900D01*
X88009D01*
X88409Y64500D01*
X88009Y64100D01*
X88409D01*
X88809Y63700D01*
X89696Y69004D02*
X90096Y69404D01*
X90496D01*
X90096Y69804D01*
X90496Y70204D01*
X90096D01*
X89696Y70604D01*
X89296Y70204D01*
X88896D01*
X89296Y69804D01*
X88896Y69404D01*
X89296D01*
X89696Y69004D01*
X94500Y95700D02*
X94900Y96100D01*
X95300D01*
X94900Y96500D01*
X95300Y96900D01*
X94900D01*
X94500Y97300D01*
X94100Y96900D01*
X93700D01*
X94100Y96500D01*
X93700Y96100D01*
X94100D01*
X94500Y95700D01*
Y98200D02*
X94900Y98600D01*
X95300D01*
X94900Y99000D01*
X95300Y99400D01*
X94900D01*
X94500Y99800D01*
X94100Y99400D01*
X93700D01*
X94100Y99000D01*
X93700Y98600D01*
X94100D01*
X94500Y98200D01*
X85500Y89200D02*
X85900Y89600D01*
X86300D01*
X85900Y90000D01*
X86300Y90400D01*
X85900D01*
X85500Y90800D01*
X85100Y90400D01*
X84700D01*
X85100Y90000D01*
X84700Y89600D01*
X85100D01*
X85500Y89200D01*
X83000D02*
X83400Y89600D01*
X83800D01*
X83400Y90000D01*
X83800Y90400D01*
X83400D01*
X83000Y90800D01*
X82600Y90400D01*
X82200D01*
X82600Y90000D01*
X82200Y89600D01*
X82600D01*
X83000Y89200D01*
X68000Y95920D02*
X68400Y96320D01*
X68800D01*
X68400Y96720D01*
X68800Y97120D01*
X68400D01*
X68000Y97521D01*
X67600Y97120D01*
X67200D01*
X67600Y96720D01*
X67200Y96320D01*
X67600D01*
X68000Y95920D01*
X76902Y94002D02*
X77302Y94402D01*
X77702D01*
X77302Y94802D01*
X77702Y95202D01*
X77302D01*
X76902Y95602D01*
X76502Y95202D01*
X76102D01*
X76502Y94802D01*
X76102Y94402D01*
X76502D01*
X76902Y94002D01*
X90000Y85200D02*
X90400Y85600D01*
X90800D01*
X90400Y86000D01*
X90800Y86400D01*
X90400D01*
X90000Y86800D01*
X89600Y86400D01*
X89200D01*
X89600Y86000D01*
X89200Y85600D01*
X89600D01*
X90000Y85200D01*
X40000Y25200D02*
X40400Y25600D01*
X40800D01*
X40400Y26000D01*
X40800Y26400D01*
X40400D01*
X40000Y26800D01*
X39600Y26400D01*
X39200D01*
X39600Y26000D01*
X39200Y25600D01*
X39600D01*
X40000Y25200D01*
X39804Y37396D02*
X40204Y37796D01*
X40604D01*
X40204Y38196D01*
X40604Y38596D01*
X40204D01*
X39804Y38996D01*
X39404Y38596D01*
X39004D01*
X39404Y38196D01*
X39004Y37796D01*
X39404D01*
X39804Y37396D01*
X37500Y36200D02*
X37900Y36600D01*
X38300D01*
X37900Y37000D01*
X38300Y37400D01*
X37900D01*
X37500Y37800D01*
X37100Y37400D01*
X36700D01*
X37100Y37000D01*
X36700Y36600D01*
X37100D01*
X37500Y36200D01*
X27500Y55200D02*
X27900Y55600D01*
X28300D01*
X27900Y56000D01*
X28300Y56400D01*
X27900D01*
X27500Y56800D01*
X27100Y56400D01*
X26700D01*
X27100Y56000D01*
X26700Y55600D01*
X27100D01*
X27500Y55200D01*
X41500Y62700D02*
X41900Y63100D01*
X42300D01*
X41900Y63500D01*
X42300Y63900D01*
X41900D01*
X41500Y64300D01*
X41100Y63900D01*
X40700D01*
X41100Y63500D01*
X40700Y63100D01*
X41100D01*
X41500Y62700D01*
X65196Y51896D02*
X65596Y52296D01*
X65996D01*
X65596Y52696D01*
X65996Y53096D01*
X65596D01*
X65196Y53496D01*
X64796Y53096D01*
X64396D01*
X64796Y52696D01*
X64396Y52296D01*
X64796D01*
X65196Y51896D01*
X83191Y58700D02*
X83591Y59100D01*
X83991D01*
X83591Y59500D01*
X83991Y59900D01*
X83591D01*
X83191Y60300D01*
X82791Y59900D01*
X82391D01*
X82791Y59500D01*
X82391Y59100D01*
X82791D01*
X83191Y58700D01*
X78309Y54287D02*
X78709Y54687D01*
X79109D01*
X78709Y55087D01*
X79109Y55487D01*
X78709D01*
X78309Y55887D01*
X77909Y55487D01*
X77509D01*
X77909Y55087D01*
X77509Y54687D01*
X77909D01*
X78309Y54287D01*
X104500Y62200D02*
X104900Y62600D01*
X105300D01*
X104900Y63000D01*
X105300Y63400D01*
X104900D01*
X104500Y63800D01*
X104100Y63400D01*
X103700D01*
X104100Y63000D01*
X103700Y62600D01*
X104100D01*
X104500Y62200D01*
X111000Y46200D02*
X111400Y46600D01*
X111800D01*
X111400Y47000D01*
X111800Y47400D01*
X111400D01*
X111000Y47800D01*
X110600Y47400D01*
X110200D01*
X110600Y47000D01*
X110200Y46600D01*
X110600D01*
X111000Y46200D01*
X116500D02*
X116900Y46600D01*
X117300D01*
X116900Y47000D01*
X117300Y47400D01*
X116900D01*
X116500Y47800D01*
X116100Y47400D01*
X115700D01*
X116100Y47000D01*
X115700Y46600D01*
X116100D01*
X116500Y46200D01*
X121500Y51700D02*
X121900Y52100D01*
X122300D01*
X121900Y52500D01*
X122300Y52900D01*
X121900D01*
X121500Y53300D01*
X121100Y52900D01*
X120700D01*
X121100Y52500D01*
X120700Y52100D01*
X121100D01*
X121500Y51700D01*
X125500D02*
X125900Y52100D01*
X126300D01*
X125900Y52500D01*
X126300Y52900D01*
X125900D01*
X125500Y53300D01*
X125100Y52900D01*
X124700D01*
X125100Y52500D01*
X124700Y52100D01*
X125100D01*
X125500Y51700D01*
X133000Y53200D02*
X133400Y53600D01*
X133800D01*
X133400Y54000D01*
X133800Y54400D01*
X133400D01*
X133000Y54800D01*
X132600Y54400D01*
X132200D01*
X132600Y54000D01*
X132200Y53600D01*
X132600D01*
X133000Y53200D01*
X119000Y64700D02*
X119400Y65100D01*
X119800D01*
X119400Y65500D01*
X119800Y65900D01*
X119400D01*
X119000Y66300D01*
X118600Y65900D01*
X118200D01*
X118600Y65500D01*
X118200Y65100D01*
X118600D01*
X119000Y64700D01*
X117000Y70200D02*
X117400Y70600D01*
X117800D01*
X117400Y71000D01*
X117800Y71400D01*
X117400D01*
X117000Y71800D01*
X116600Y71400D01*
X116200D01*
X116600Y71000D01*
X116200Y70600D01*
X116600D01*
X117000Y70200D01*
X85370Y71830D02*
X85770Y72230D01*
X86170D01*
X85770Y72630D01*
X86170Y73030D01*
X85770D01*
X85370Y73430D01*
X84970Y73030D01*
X84570D01*
X84970Y72630D01*
X84570Y72230D01*
X84970D01*
X85370Y71830D01*
X128233Y82200D02*
X128633Y82600D01*
X129033D01*
X128633Y83000D01*
X129033Y83400D01*
X128633D01*
X128233Y83800D01*
X127833Y83400D01*
X127433D01*
X127833Y83000D01*
X127433Y82600D01*
X127833D01*
X128233Y82200D01*
X89000Y75891D02*
X89400Y76291D01*
X89800D01*
X89400Y76691D01*
X89800Y77091D01*
X89400D01*
X89000Y77491D01*
X88600Y77091D01*
X88200D01*
X88600Y76691D01*
X88200Y76291D01*
X88600D01*
X89000Y75891D01*
X86000Y74200D02*
X86400Y74600D01*
X86800D01*
X86400Y75000D01*
X86800Y75400D01*
X86400D01*
X86000Y75800D01*
X85600Y75400D01*
X85200D01*
X85600Y75000D01*
X85200Y74600D01*
X85600D01*
X86000Y74200D01*
X86500Y65036D02*
X86900Y65436D01*
X87300D01*
X86900Y65836D01*
X87300Y66236D01*
X86900D01*
X86500Y66636D01*
X86100Y66236D01*
X85700D01*
X86100Y65836D01*
X85700Y65436D01*
X86100D01*
X86500Y65036D01*
X82500Y76119D02*
X82900Y76519D01*
X83300D01*
X82900Y76919D01*
X83300Y77319D01*
X82900D01*
X82500Y77719D01*
X82100Y77319D01*
X81700D01*
X82100Y76919D01*
X81700Y76519D01*
X82100D01*
X82500Y76119D01*
X99500Y82700D02*
X99900Y83100D01*
X100300D01*
X99900Y83500D01*
X100300Y83900D01*
X99900D01*
X99500Y84300D01*
X99100Y83900D01*
X98700D01*
X99100Y83500D01*
X98700Y83100D01*
X99100D01*
X99500Y82700D01*
X128000Y79391D02*
X128400Y79791D01*
X128800D01*
X128400Y80191D01*
X128800Y80591D01*
X128400D01*
X128000Y80991D01*
X127600Y80591D01*
X127200D01*
X127600Y80191D01*
X127200Y79791D01*
X127600D01*
X128000Y79391D01*
X125500Y77700D02*
X125900Y78100D01*
X126300D01*
X125900Y78500D01*
X126300Y78900D01*
X125900D01*
X125500Y79300D01*
X125100Y78900D01*
X124700D01*
X125100Y78500D01*
X124700Y78100D01*
X125100D01*
X125500Y77700D01*
X112500Y116700D02*
X112900Y117100D01*
X113300D01*
X112900Y117500D01*
X113300Y117900D01*
X112900D01*
X112500Y118300D01*
X112100Y117900D01*
X111700D01*
X112100Y117500D01*
X111700Y117100D01*
X112100D01*
X112500Y116700D01*
Y119200D02*
X112900Y119600D01*
X113300D01*
X112900Y120000D01*
X113300Y120400D01*
X112900D01*
X112500Y120800D01*
X112100Y120400D01*
X111700D01*
X112100Y120000D01*
X111700Y119600D01*
X112100D01*
X112500Y119200D01*
X75081Y114700D02*
X75481Y115100D01*
X75881D01*
X75481Y115500D01*
X75881Y115900D01*
X75481D01*
X75081Y116300D01*
X74681Y115900D01*
X74281D01*
X74681Y115500D01*
X74281Y115100D01*
X74681D01*
X75081Y114700D01*
X92500Y64391D02*
X92900Y64791D01*
X93300D01*
X92900Y65191D01*
X93300Y65591D01*
X92900D01*
X92500Y65991D01*
X92100Y65591D01*
X91700D01*
X92100Y65191D01*
X91700Y64791D01*
X92100D01*
X92500Y64391D01*
X95309D02*
X95709Y64791D01*
X96109D01*
X95709Y65191D01*
X96109Y65591D01*
X95709D01*
X95309Y65991D01*
X94909Y65591D01*
X94509D01*
X94909Y65191D01*
X94509Y64791D01*
X94909D01*
X95309Y64391D01*
X91000Y52200D02*
X91400Y52600D01*
X91800D01*
X91400Y53000D01*
X91800Y53400D01*
X91400D01*
X91000Y53800D01*
X90600Y53400D01*
X90200D01*
X90600Y53000D01*
X90200Y52600D01*
X90600D01*
X91000Y52200D01*
X94500Y51200D02*
X94900Y51600D01*
X95300D01*
X94900Y52000D01*
X95300Y52400D01*
X94900D01*
X94500Y52800D01*
X94100Y52400D01*
X93700D01*
X94100Y52000D01*
X93700Y51600D01*
X94100D01*
X94500Y51200D01*
X84191Y52700D02*
X84591Y53100D01*
X84991D01*
X84591Y53500D01*
X84991Y53900D01*
X84591D01*
X84191Y54300D01*
X83791Y53900D01*
X83391D01*
X83791Y53500D01*
X83391Y53100D01*
X83791D01*
X84191Y52700D01*
X86500D02*
X86900Y53100D01*
X87300D01*
X86900Y53500D01*
X87300Y53900D01*
X86900D01*
X86500Y54300D01*
X86100Y53900D01*
X85700D01*
X86100Y53500D01*
X85700Y53100D01*
X86100D01*
X86500Y52700D01*
X95691Y38200D02*
X96091Y38600D01*
X96491D01*
X96091Y39000D01*
X96491Y39400D01*
X96091D01*
X95691Y39800D01*
X95291Y39400D01*
X94891D01*
X95291Y39000D01*
X94891Y38600D01*
X95291D01*
X95691Y38200D01*
X105500Y36200D02*
X105900Y36600D01*
X106300D01*
X105900Y37000D01*
X106300Y37400D01*
X105900D01*
X105500Y37800D01*
X105100Y37400D01*
X104700D01*
X105100Y37000D01*
X104700Y36600D01*
X105100D01*
X105500Y36200D01*
X90309Y36866D02*
X90709Y37266D01*
X91109D01*
X90709Y37666D01*
X91109Y38066D01*
X90709D01*
X90309Y38466D01*
X89909Y38066D01*
X89509D01*
X89909Y37666D01*
X89509Y37266D01*
X89909D01*
X90309Y36866D01*
X79500Y40700D02*
X79900Y41100D01*
X80300D01*
X79900Y41500D01*
X80300Y41900D01*
X79900D01*
X79500Y42300D01*
X79100Y41900D01*
X78700D01*
X79100Y41500D01*
X78700Y41100D01*
X79100D01*
X79500Y40700D01*
X80000Y38200D02*
X80400Y38600D01*
X80800D01*
X80400Y39000D01*
X80800Y39400D01*
X80400D01*
X80000Y39800D01*
X79600Y39400D01*
X79200D01*
X79600Y39000D01*
X79200Y38600D01*
X79600D01*
X80000Y38200D01*
X121000Y46200D02*
X121400Y46600D01*
X121800D01*
X121400Y47000D01*
X121800Y47400D01*
X121400D01*
X121000Y47800D01*
X120600Y47400D01*
X120200D01*
X120600Y47000D01*
X120200Y46600D01*
X120600D01*
X121000Y46200D01*
X119804Y42504D02*
X120204Y42904D01*
X120604D01*
X120204Y43304D01*
X120604Y43704D01*
X120204D01*
X119804Y44104D01*
X119404Y43704D01*
X119004D01*
X119404Y43304D01*
X119004Y42904D01*
X119404D01*
X119804Y42504D01*
X123500Y44200D02*
X123900Y44600D01*
X124300D01*
X123900Y45000D01*
X124300Y45400D01*
X123900D01*
X123500Y45800D01*
X123100Y45400D01*
X122700D01*
X123100Y45000D01*
X122700Y44600D01*
X123100D01*
X123500Y44200D01*
X150000Y44700D02*
X150400Y45100D01*
X150800D01*
X150400Y45500D01*
X150800Y45900D01*
X150400D01*
X150000Y46300D01*
X149600Y45900D01*
X149200D01*
X149600Y45500D01*
X149200Y45100D01*
X149600D01*
X150000Y44700D01*
Y47700D02*
X150400Y48100D01*
X150800D01*
X150400Y48500D01*
X150800Y48900D01*
X150400D01*
X150000Y49300D01*
X149600Y48900D01*
X149200D01*
X149600Y48500D01*
X149200Y48100D01*
X149600D01*
X150000Y47700D01*
X149799Y40200D02*
X150199Y40600D01*
X150599D01*
X150199Y41000D01*
X150599Y41400D01*
X150199D01*
X149799Y41800D01*
X149399Y41400D01*
X148999D01*
X149399Y41000D01*
X148999Y40600D01*
X149399D01*
X149799Y40200D01*
Y37391D02*
X150199Y37791D01*
X150599D01*
X150199Y38191D01*
X150599Y38591D01*
X150199D01*
X149799Y38991D01*
X149399Y38591D01*
X148999D01*
X149399Y38191D01*
X148999Y37791D01*
X149399D01*
X149799Y37391D01*
X133097Y101009D02*
X133497Y101409D01*
X133897D01*
X133497Y101809D01*
X133897Y102209D01*
X133497D01*
X133097Y102609D01*
X132697Y102209D01*
X132297D01*
X132697Y101809D01*
X132297Y101409D01*
X132697D01*
X133097Y101009D01*
X123000Y103200D02*
X123400Y103600D01*
X123800D01*
X123400Y104000D01*
X123800Y104400D01*
X123400D01*
X123000Y104800D01*
X122600Y104400D01*
X122200D01*
X122600Y104000D01*
X122200Y103600D01*
X122600D01*
X123000Y103200D01*
X118000Y139700D02*
X118400Y140100D01*
X118800D01*
X118400Y140500D01*
X118800Y140900D01*
X118400D01*
X118000Y141300D01*
X117600Y140900D01*
X117200D01*
X117600Y140500D01*
X117200Y140100D01*
X117600D01*
X118000Y139700D01*
X122000D02*
X122400Y140100D01*
X122800D01*
X122400Y140500D01*
X122800Y140900D01*
X122400D01*
X122000Y141300D01*
X121600Y140900D01*
X121200D01*
X121600Y140500D01*
X121200Y140100D01*
X121600D01*
X122000Y139700D01*
X103500Y82509D02*
X103900Y82909D01*
X104300D01*
X103900Y83309D01*
X104300Y83709D01*
X103900D01*
X103500Y84109D01*
X103100Y83709D01*
X102700D01*
X103100Y83309D01*
X102700Y82909D01*
X103100D01*
X103500Y82509D01*
Y95700D02*
X103900Y96100D01*
X104300D01*
X103900Y96500D01*
X104300Y96900D01*
X103900D01*
X103500Y97300D01*
X103100Y96900D01*
X102700D01*
X103100Y96500D01*
X102700Y96100D01*
X103100D01*
X103500Y95700D01*
Y99200D02*
X103900Y99600D01*
X104300D01*
X103900Y100000D01*
X104300Y100400D01*
X103900D01*
X103500Y100800D01*
X103100Y100400D01*
X102700D01*
X103100Y100000D01*
X102700Y99600D01*
X103100D01*
X103500Y99200D01*
X100000Y85700D02*
X100400Y86100D01*
X100800D01*
X100400Y86500D01*
X100800Y86900D01*
X100400D01*
X100000Y87300D01*
X99600Y86900D01*
X99200D01*
X99600Y86500D01*
X99200Y86100D01*
X99600D01*
X100000Y85700D01*
X103500Y86200D02*
X103900Y86600D01*
X104300D01*
X103900Y87000D01*
X104300Y87400D01*
X103900D01*
X103500Y87800D01*
X103100Y87400D01*
X102700D01*
X103100Y87000D01*
X102700Y86600D01*
X103100D01*
X103500Y86200D01*
Y88700D02*
X103900Y89100D01*
X104300D01*
X103900Y89500D01*
X104300Y89900D01*
X103900D01*
X103500Y90300D01*
X103100Y89900D01*
X102700D01*
X103100Y89500D01*
X102700Y89100D01*
X103100D01*
X103500Y88700D01*
Y91200D02*
X103900Y91600D01*
X104300D01*
X103900Y92000D01*
X104300Y92400D01*
X103900D01*
X103500Y92800D01*
X103100Y92400D01*
X102700D01*
X103100Y92000D01*
X102700Y91600D01*
X103100D01*
X103500Y91200D01*
X98699Y89610D02*
X99099Y90010D01*
X99499D01*
X99099Y90410D01*
X99499Y90810D01*
X99099D01*
X98699Y91210D01*
X98299Y90810D01*
X97899D01*
X98299Y90410D01*
X97899Y90010D01*
X98299D01*
X98699Y89610D01*
X95691Y89499D02*
X96091Y89899D01*
X96491D01*
X96091Y90299D01*
X96491Y90699D01*
X96091D01*
X95691Y91099D01*
X95291Y90699D01*
X94891D01*
X95291Y90299D01*
X94891Y89899D01*
X95291D01*
X95691Y89499D01*
X96500Y138700D02*
X96900Y139100D01*
X97300D01*
X96900Y139500D01*
X97300Y139900D01*
X96900D01*
X96500Y140300D01*
X96100Y139900D01*
X95700D01*
X96100Y139500D01*
X95700Y139100D01*
X96100D01*
X96500Y138700D01*
X39000Y139457D02*
X39400Y139857D01*
X39800D01*
X39400Y140258D01*
X39800Y140657D01*
X39400D01*
X39000Y141058D01*
X38600Y140657D01*
X38200D01*
X38600Y140258D01*
X38200Y139857D01*
X38600D01*
X39000Y139457D01*
X88199Y138700D02*
X88599Y139100D01*
X88999D01*
X88599Y139500D01*
X88999Y139900D01*
X88599D01*
X88199Y140300D01*
X87799Y139900D01*
X87399D01*
X87799Y139500D01*
X87399Y139100D01*
X87799D01*
X88199Y138700D01*
X47000Y139200D02*
X47400Y139600D01*
X47800D01*
X47400Y140000D01*
X47800Y140400D01*
X47400D01*
X47000Y140800D01*
X46600Y140400D01*
X46200D01*
X46600Y140000D01*
X46200Y139600D01*
X46600D01*
X47000Y139200D01*
X40000Y126789D02*
X40400Y127189D01*
X40800D01*
X40400Y127589D01*
X40800Y127989D01*
X40400D01*
X40000Y128389D01*
X39600Y127989D01*
X39200D01*
X39600Y127589D01*
X39200Y127189D01*
X39600D01*
X40000Y126789D01*
X27000Y124200D02*
X27400Y124600D01*
X27800D01*
X27400Y125000D01*
X27800Y125400D01*
X27400D01*
X27000Y125800D01*
X26600Y125400D01*
X26200D01*
X26600Y125000D01*
X26200Y124600D01*
X26600D01*
X27000Y124200D01*
X26500Y110700D02*
X26900Y111100D01*
X27300D01*
X26900Y111500D01*
X27300Y111900D01*
X26900D01*
X26500Y112300D01*
X26100Y111900D01*
X25700D01*
X26100Y111500D01*
X25700Y111100D01*
X26100D01*
X26500Y110700D01*
X25000Y104200D02*
X25400Y104600D01*
X25800D01*
X25400Y105000D01*
X25800Y105400D01*
X25400D01*
X25000Y105800D01*
X24600Y105400D01*
X24200D01*
X24600Y105000D01*
X24200Y104600D01*
X24600D01*
X25000Y104200D01*
X40809Y110700D02*
X41209Y111100D01*
X41609D01*
X41209Y111500D01*
X41609Y111900D01*
X41209D01*
X40809Y112300D01*
X40409Y111900D01*
X40009D01*
X40409Y111500D01*
X40009Y111100D01*
X40409D01*
X40809Y110700D01*
X38500Y109200D02*
X38900Y109600D01*
X39300D01*
X38900Y110000D01*
X39300Y110400D01*
X38900D01*
X38500Y110800D01*
X38100Y110400D01*
X37700D01*
X38100Y110000D01*
X37700Y109600D01*
X38100D01*
X38500Y109200D01*
X66000Y109700D02*
X66400Y110100D01*
X66800D01*
X66400Y110500D01*
X66800Y110900D01*
X66400D01*
X66000Y111300D01*
X65600Y110900D01*
X65200D01*
X65600Y110500D01*
X65200Y110100D01*
X65600D01*
X66000Y109700D01*
X77000Y85200D02*
X77400Y85600D01*
X77800D01*
X77400Y86000D01*
X77800Y86400D01*
X77400D01*
X77000Y86800D01*
X76600Y86400D01*
X76200D01*
X76600Y86000D01*
X76200Y85600D01*
X76600D01*
X77000Y85200D01*
X82500Y64200D02*
X82900Y64600D01*
X83300D01*
X82900Y65000D01*
X83300Y65400D01*
X82900D01*
X82500Y65800D01*
X82100Y65400D01*
X81700D01*
X82100Y65000D01*
X81700Y64600D01*
X82100D01*
X82500Y64200D01*
X44697Y48700D02*
X45097Y49100D01*
X45497D01*
X45097Y49500D01*
X45497Y49900D01*
X45097D01*
X44697Y50300D01*
X44297Y49900D01*
X43897D01*
X44297Y49500D01*
X43897Y49100D01*
X44297D01*
X44697Y48700D01*
X17500Y70200D02*
X17900Y70600D01*
X18300D01*
X17900Y71000D01*
X18300Y71400D01*
X17900D01*
X17500Y71800D01*
X17100Y71400D01*
X16700D01*
X17100Y71000D01*
X16700Y70600D01*
X17100D01*
X17500Y70200D01*
X28000Y48700D02*
X28400Y49100D01*
X28800D01*
X28400Y49500D01*
X28800Y49900D01*
X28400D01*
X28000Y50300D01*
X27600Y49900D01*
X27200D01*
X27600Y49500D01*
X27200Y49100D01*
X27600D01*
X28000Y48700D01*
X30000Y61700D02*
X30400Y62100D01*
X30800D01*
X30400Y62500D01*
X30800Y62900D01*
X30400D01*
X30000Y63300D01*
X29600Y62900D01*
X29200D01*
X29600Y62500D01*
X29200Y62100D01*
X29600D01*
X30000Y61700D01*
X149500Y29700D02*
X149900Y30100D01*
X150300D01*
X149900Y30500D01*
X150300Y30900D01*
X149900D01*
X149500Y31300D01*
X149100Y30900D01*
X148700D01*
X149100Y30500D01*
X148700Y30100D01*
X149100D01*
X149500Y29700D01*
X134500Y33200D02*
X134900Y33600D01*
X135300D01*
X134900Y34000D01*
X135300Y34400D01*
X134900D01*
X134500Y34800D01*
X134100Y34400D01*
X133700D01*
X134100Y34000D01*
X133700Y33600D01*
X134100D01*
X134500Y33200D01*
X68500Y114200D02*
X68900Y114600D01*
X69300D01*
X68900Y115000D01*
X69300Y115400D01*
X68900D01*
X68500Y115800D01*
X68100Y115400D01*
X67700D01*
X68100Y115000D01*
X67700Y114600D01*
X68100D01*
X68500Y114200D01*
X64500D02*
X64900Y114600D01*
X65300D01*
X64900Y115000D01*
X65300Y115400D01*
X64900D01*
X64500Y115800D01*
X64100Y115400D01*
X63700D01*
X64100Y115000D01*
X63700Y114600D01*
X64100D01*
X64500Y114200D01*
X84500Y138700D02*
X84900Y139100D01*
X85300D01*
X84900Y139500D01*
X85300Y139900D01*
X84900D01*
X84500Y140300D01*
X84100Y139900D01*
X83700D01*
X84100Y139500D01*
X83700Y139100D01*
X84100D01*
X84500Y138700D01*
X53500Y101700D02*
X53900Y102100D01*
X54300D01*
X53900Y102500D01*
X54300Y102900D01*
X53900D01*
X53500Y103300D01*
X53100Y102900D01*
X52700D01*
X53100Y102500D01*
X52700Y102100D01*
X53100D01*
X53500Y101700D01*
X29571Y118271D02*
X29971Y118671D01*
X30371D01*
X29971Y119071D01*
X30371Y119471D01*
X29971D01*
X29571Y119871D01*
X29171Y119471D01*
X28771D01*
X29171Y119071D01*
X28771Y118671D01*
X29171D01*
X29571Y118271D01*
X31500Y131200D02*
X31900Y131600D01*
X32300D01*
X31900Y132000D01*
X32300Y132400D01*
X31900D01*
X31500Y132800D01*
X31100Y132400D01*
X30700D01*
X31100Y132000D01*
X30700Y131600D01*
X31100D01*
X31500Y131200D01*
X39360Y130591D02*
X39759Y130991D01*
X40159D01*
X39759Y131392D01*
X40159Y131791D01*
X39759D01*
X39360Y132192D01*
X38960Y131791D01*
X38559D01*
X38960Y131392D01*
X38559Y130991D01*
X38960D01*
X39360Y130591D01*
X91500Y126200D02*
X91900Y126600D01*
X92300D01*
X91900Y127000D01*
X92300Y127400D01*
X91900D01*
X91500Y127800D01*
X91100Y127400D01*
X90700D01*
X91100Y127000D01*
X90700Y126600D01*
X91100D01*
X91500Y126200D01*
X90000Y131700D02*
X90400Y132100D01*
X90800D01*
X90400Y132500D01*
X90800Y132900D01*
X90400D01*
X90000Y133300D01*
X89600Y132900D01*
X89200D01*
X89600Y132500D01*
X89200Y132100D01*
X89600D01*
X90000Y131700D01*
X116500Y97700D02*
X116900Y98100D01*
X117300D01*
X116900Y98500D01*
X117300Y98900D01*
X116900D01*
X116500Y99300D01*
X116100Y98900D01*
X115700D01*
X116100Y98500D01*
X115700Y98100D01*
X116100D01*
X116500Y97700D01*
X129500Y74200D02*
X129900Y74600D01*
X130300D01*
X129900Y75000D01*
X130300Y75400D01*
X129900D01*
X129500Y75800D01*
X129100Y75400D01*
X128700D01*
X129100Y75000D01*
X128700Y74600D01*
X129100D01*
X129500Y74200D01*
X142000Y120200D02*
X142400Y120600D01*
X142800D01*
X142400Y121000D01*
X142800Y121400D01*
X142400D01*
X142000Y121800D01*
X141600Y121400D01*
X141200D01*
X141600Y121000D01*
X141200Y120600D01*
X141600D01*
X142000Y120200D01*
X97500Y115700D02*
X97900Y116100D01*
X98300D01*
X97900Y116500D01*
X98300Y116900D01*
X97900D01*
X97500Y117300D01*
X97100Y116900D01*
X96700D01*
X97100Y116500D01*
X96700Y116100D01*
X97100D01*
X97500Y115700D01*
X100000D02*
X100400Y116100D01*
X100800D01*
X100400Y116500D01*
X100800Y116900D01*
X100400D01*
X100000Y117300D01*
X99600Y116900D01*
X99200D01*
X99600Y116500D01*
X99200Y116100D01*
X99600D01*
X100000Y115700D01*
X95000D02*
X95400Y116100D01*
X95800D01*
X95400Y116500D01*
X95800Y116900D01*
X95400D01*
X95000Y117300D01*
X94600Y116900D01*
X94200D01*
X94600Y116500D01*
X94200Y116100D01*
X94600D01*
X95000Y115700D01*
X113821Y137879D02*
X114221Y138279D01*
X114621D01*
X114221Y138679D01*
X114621Y139079D01*
X114221D01*
X113821Y139479D01*
X113421Y139079D01*
X113021D01*
X113421Y138679D01*
X113021Y138279D01*
X113421D01*
X113821Y137879D01*
X131500Y169700D02*
X131900Y170100D01*
X132300D01*
X131900Y170500D01*
X132300Y170900D01*
X131900D01*
X131500Y171300D01*
X131100Y170900D01*
X130700D01*
X131100Y170500D01*
X130700Y170100D01*
X131100D01*
X131500Y169700D01*
X122945Y120493D02*
X123345Y120893D01*
X123745D01*
X123345Y121293D01*
X123745Y121693D01*
X123345D01*
X122945Y122093D01*
X122545Y121693D01*
X122145D01*
X122545Y121293D01*
X122145Y120893D01*
X122545D01*
X122945Y120493D01*
X91000Y138700D02*
X91400Y139100D01*
X91800D01*
X91400Y139500D01*
X91800Y139900D01*
X91400D01*
X91000Y140300D01*
X90600Y139900D01*
X90200D01*
X90600Y139500D01*
X90200Y139100D01*
X90600D01*
X91000Y138700D01*
X39500Y95700D02*
X39900Y96100D01*
X40300D01*
X39900Y96500D01*
X40300Y96900D01*
X39900D01*
X39500Y97300D01*
X39100Y96900D01*
X38700D01*
X39100Y96500D01*
X38700Y96100D01*
X39100D01*
X39500Y95700D01*
X49500Y160700D02*
X49900Y161100D01*
X50300D01*
X49900Y161500D01*
X50300Y161900D01*
X49900D01*
X49500Y162300D01*
X49100Y161900D01*
X48700D01*
X49100Y161500D01*
X48700Y161100D01*
X49100D01*
X49500Y160700D01*
X101500Y161200D02*
X101900Y161600D01*
X102300D01*
X101900Y162000D01*
X102300Y162400D01*
X101900D01*
X101500Y162800D01*
X101100Y162400D01*
X100700D01*
X101100Y162000D01*
X100700Y161600D01*
X101100D01*
X101500Y161200D01*
X142000Y128700D02*
X142400Y129100D01*
X142800D01*
X142400Y129500D01*
X142800Y129900D01*
X142400D01*
X142000Y130300D01*
X141600Y129900D01*
X141200D01*
X141600Y129500D01*
X141200Y129100D01*
X141600D01*
X142000Y128700D01*
X119000Y149200D02*
X119400Y149600D01*
X119800D01*
X119400Y150000D01*
X119800Y150400D01*
X119400D01*
X119000Y150800D01*
X118600Y150400D01*
X118200D01*
X118600Y150000D01*
X118200Y149600D01*
X118600D01*
X119000Y149200D01*
X146000Y32200D02*
X146400Y32600D01*
X146800D01*
X146400Y33000D01*
X146800Y33400D01*
X146400D01*
X146000Y33800D01*
X145600Y33400D01*
X145200D01*
X145600Y33000D01*
X145200Y32600D01*
X145600D01*
X146000Y32200D01*
X135000Y28700D02*
X135400Y29100D01*
X135800D01*
X135400Y29500D01*
X135800Y29900D01*
X135400D01*
X135000Y30300D01*
X134600Y29900D01*
X134200D01*
X134600Y29500D01*
X134200Y29100D01*
X134600D01*
X135000Y28700D01*
X55000Y11200D02*
X55400Y11600D01*
X55800D01*
X55400Y12000D01*
X55800Y12400D01*
X55400D01*
X55000Y12800D01*
X54600Y12400D01*
X54200D01*
X54600Y12000D01*
X54200Y11600D01*
X54600D01*
X55000Y11200D01*
X34000Y144200D02*
X34400Y144600D01*
X34800D01*
X34400Y145000D01*
X34800Y145400D01*
X34400D01*
X34000Y145800D01*
X33600Y145400D01*
X33200D01*
X33600Y145000D01*
X33200Y144600D01*
X33600D01*
X34000Y144200D01*
Y140700D02*
X34400Y141100D01*
X34800D01*
X34400Y141500D01*
X34800Y141900D01*
X34400D01*
X34000Y142300D01*
X33600Y141900D01*
X33200D01*
X33600Y141500D01*
X33200Y141100D01*
X33600D01*
X34000Y140700D01*
X116000Y81700D02*
X116400Y82100D01*
X116800D01*
X116400Y82500D01*
X116800Y82900D01*
X116400D01*
X116000Y83300D01*
X115600Y82900D01*
X115200D01*
X115600Y82500D01*
X115200Y82100D01*
X115600D01*
X116000Y81700D01*
X143000Y148200D02*
X143400Y148600D01*
X143800D01*
X143400Y149000D01*
X143800Y149400D01*
X143400D01*
X143000Y149800D01*
X142600Y149400D01*
X142200D01*
X142600Y149000D01*
X142200Y148600D01*
X142600D01*
X143000Y148200D01*
X121504Y80700D02*
X121904Y81100D01*
X122304D01*
X121904Y81500D01*
X122304Y81900D01*
X121904D01*
X121504Y82300D01*
X121104Y81900D01*
X120704D01*
X121104Y81500D01*
X120704Y81100D01*
X121104D01*
X121504Y80700D01*
X37000Y148700D02*
X37400Y149100D01*
X37800D01*
X37400Y149500D01*
X37800Y149900D01*
X37400D01*
X37000Y150300D01*
X36600Y149900D01*
X36200D01*
X36600Y149500D01*
X36200Y149100D01*
X36600D01*
X37000Y148700D01*
X103500Y118200D02*
X103900Y118600D01*
X104300D01*
X103900Y119000D01*
X104300Y119400D01*
X103900D01*
X103500Y119800D01*
X103100Y119400D01*
X102700D01*
X103100Y119000D01*
X102700Y118600D01*
X103100D01*
X103500Y118200D01*
X128000Y108200D02*
X128400Y108600D01*
X128800D01*
X128400Y109000D01*
X128800Y109400D01*
X128400D01*
X128000Y109800D01*
X127600Y109400D01*
X127200D01*
X127600Y109000D01*
X127200Y108600D01*
X127600D01*
X128000Y108200D01*
X55000Y132200D02*
X55400Y132600D01*
X55800D01*
X55400Y133000D01*
X55800Y133400D01*
X55400D01*
X55000Y133800D01*
X54600Y133400D01*
X54200D01*
X54600Y133000D01*
X54200Y132600D01*
X54600D01*
X55000Y132200D01*
X62000Y114200D02*
X62400Y114600D01*
X62800D01*
X62400Y115000D01*
X62800Y115400D01*
X62400D01*
X62000Y115800D01*
X61600Y115400D01*
X61200D01*
X61600Y115000D01*
X61200Y114600D01*
X61600D01*
X62000Y114200D01*
X91000Y25700D02*
X91400Y26100D01*
X91800D01*
X91400Y26500D01*
X91800Y26900D01*
X91400D01*
X91000Y27300D01*
X90600Y26900D01*
X90200D01*
X90600Y26500D01*
X90200Y26100D01*
X90600D01*
X91000Y25700D01*
X78500Y172200D02*
X78900Y172600D01*
X79300D01*
X78900Y173000D01*
X79300Y173400D01*
X78900D01*
X78500Y173800D01*
X78100Y173400D01*
X77700D01*
X78100Y173000D01*
X77700Y172600D01*
X78100D01*
X78500Y172200D01*
X37500Y62700D02*
X37900Y63100D01*
X38300D01*
X37900Y63500D01*
X38300Y63900D01*
X37900D01*
X37500Y64300D01*
X37100Y63900D01*
X36700D01*
X37100Y63500D01*
X36700Y63100D01*
X37100D01*
X37500Y62700D01*
X54000Y36200D02*
X54400Y36600D01*
X54800D01*
X54400Y37000D01*
X54800Y37400D01*
X54400D01*
X54000Y37800D01*
X53600Y37400D01*
X53200D01*
X53600Y37000D01*
X53200Y36600D01*
X53600D01*
X54000Y36200D01*
D108*
X65800Y87500D02*
G03*
X65800Y87500I-800J0D01*
G01*
X56229Y30010D02*
G03*
X56229Y30010I-800J0D01*
G01*
X63854Y77659D02*
G03*
X63854Y77659I-800J0D01*
G01*
X57214Y92000D02*
G03*
X57214Y92000I-800J0D01*
G01*
X79800Y68081D02*
G03*
X79800Y68081I-800J0D01*
G01*
X46280Y84276D02*
G03*
X46280Y84276I-800J0D01*
G01*
X57800Y78500D02*
G03*
X57800Y78500I-800J0D01*
G01*
X60800D02*
G03*
X60800Y78500I-800J0D01*
G01*
X71617Y85817D02*
G03*
X71617Y85817I-800J0D01*
G01*
X68850Y83000D02*
G03*
X68850Y83000I-800J0D01*
G01*
X61800Y87000D02*
G03*
X61800Y87000I-800J0D01*
G01*
X57215Y85000D02*
G03*
X57215Y85000I-800J0D01*
G01*
X137209Y70717D02*
G03*
X137209Y70717I-800J0D01*
G01*
X16800Y81000D02*
G03*
X16800Y81000I-800J0D01*
G01*
X37022Y79772D02*
G03*
X37022Y79772I-800J0D01*
G01*
X39028Y89218D02*
G03*
X39028Y89218I-800J0D01*
G01*
X45696Y72396D02*
G03*
X45696Y72396I-800J0D01*
G01*
X71800Y71415D02*
G03*
X71800Y71415I-800J0D01*
G01*
X54800Y26441D02*
G03*
X54800Y26441I-800J0D01*
G01*
X27300Y29500D02*
G03*
X27300Y29500I-800J0D01*
G01*
X65800Y92000D02*
G03*
X65800Y92000I-800J0D01*
G01*
X29300Y42500D02*
G03*
X29300Y42500I-800J0D01*
G01*
X45800Y63500D02*
G03*
X45800Y63500I-800J0D01*
G01*
X28800Y47000D02*
G03*
X28800Y47000I-800J0D01*
G01*
X33300Y96000D02*
G03*
X33300Y96000I-800J0D01*
G01*
X69800Y23000D02*
G03*
X69800Y23000I-800J0D01*
G01*
X93800Y10500D02*
G03*
X93800Y10500I-800J0D01*
G01*
M02*
