M48
;Layer_Color=9474304
;FILE_FORMAT=2:5
INCH,TZ
;TYPE=PLATED
T01F00S00C0.00630
T02F00S00C0.00984
T03F00S00C0.01000
T04F00S00C0.01402
T05F00S00C0.03543
T06F00S00C0.13386
%
T01
X130000Y70000
X140809Y80000
X145000Y81000
X140557Y89530
X153470
X150720Y72500
X130500Y134000
X115500Y135389
X111500Y137098
X102845Y136583
X76500Y134000
X27000Y86500
X31000Y76000
T02
X46000Y14000
T03
X40000Y26000
X39804Y38196
X37500Y37000
X54000
X52500Y30500
X55000Y12000
X44697Y49500
X28000
X27500Y56000
X66366Y54918
X65196Y52696
X78309Y55087
X84191Y53500
X86500
X91000Y53000
X94500Y52000
X95691Y39000
X90309Y37666
X80000Y39000
X79500Y41500
X91000Y26500
X105500Y37000
X111000Y47000
X116500
X121000
X123500Y45000
X119804Y43304
X121500Y52500
X125500
X133000Y54000
X134500Y34000
X135000Y29500
X146000Y33000
X149500Y30500
X149799Y38191
Y41000
X150000Y45500
Y48500
X129500Y75000
X128000Y80191
X128233Y83000
X125500Y78500
X121504Y81500
X116000Y82500
X117000Y71000
X119000Y65500
X104500Y63000
X95309Y65191
X92500
X88809Y64500
X86500Y65836
X82500Y65000
X83191Y59500
X74594Y56351
X72500Y57500
X69500Y56500
X67335Y71000
X66719Y78473
X69096Y77945
X79633Y76367
X82500Y76919
X86000Y75000
X85370Y72630
X89696Y69804
X89000Y76691
X90000Y86000
X85500Y90000
X83000
X77000Y86000
X76902Y94802
X68000Y96720
X66500Y89500
X66000Y110500
X66500Y116000
X68500Y115000
X64500
X62000
X75081Y115500
X76772Y119196
X77216Y112100
X83500Y116500
X87199Y117500
X95000Y116500
X97500
X100000
X103500Y119000
X104191Y110558
X106512Y110488
X113000Y106309
X111000Y102500
X116500Y98500
X123000Y104000
X128000Y109000
X133097Y101809
X142000Y92500
Y121000
Y129500
X143000Y149000
X135000Y161000
X131500Y170500
X119000Y150000
X118000Y140500
X122000
X119213Y135787
X113821Y138679
X96500Y139500
X91000
X88199
X84500
X90000Y132500
X91500Y127000
X112500Y120000
Y117500
X122945Y121293
X103500Y100000
Y96500
X102000Y94500
X103500Y92000
Y89500
Y87000
Y83309
X99500Y83500
X100000Y86500
X98699Y90410
X95691Y90299
X94500Y96500
Y99000
X64500Y133911
X78500Y173000
X101500Y162000
X49500Y161500
X47000Y140000
X39000Y140258
X34000Y141500
Y145000
X37000Y149500
X39360Y131392
X40000Y127589
X39787Y124029
X38633Y119748
X42145Y118699
X40809Y111500
X38500Y110000
X26500Y111500
X25000Y105000
X29571Y119071
X29500Y121424
X27000Y125000
X32500Y127000
X31500Y132000
X49500Y131500
X55000Y133000
X53500Y102500
X39500Y96500
X45000Y87000
X44488Y81906
X44288Y79659
X41500Y63500
X37500
X30000Y62500
X25572Y76572
X22691Y78010
X17500Y71000
T04
X26500Y29500
X28500Y42500
X28000Y47000
X55429Y30010
X54000Y26441
X69000Y23000
X93000Y10500
X79000Y68081
X71000Y71415
X63054Y77659
X60000Y78500
X57000
X56415Y85000
X61000Y87000
X65000Y87500
Y92000
X56414
X70817Y85817
X68050Y83000
X136409Y70717
X44896Y72396
X45000Y63500
X45480Y84276
X38228Y89218
X36222Y79772
X32500Y96000
X16000Y81000
T05
X149500Y95000
Y105000
Y115000
Y125000
Y135000
Y145000
X159500
X169500
Y135000
Y125000
Y115000
Y105000
Y95000
X159500
Y105000
Y115000
Y125000
Y135000
T06
X12500Y12500
X162500
Y162500
X12500
M30
