G04*
G04 #@! TF.GenerationSoftware,Altium Limited,Altium Designer,23.8.1 (32)*
G04*
G04 Layer_Physical_Order=2*
G04 Layer_Color=36540*
%FSLAX25Y25*%
%MOIN*%
G70*
G04*
G04 #@! TF.SameCoordinates,B5059604-2DC0-44BE-8EC4-76C519F24F96*
G04*
G04*
G04 #@! TF.FilePolarity,Positive*
G04*
G01*
G75*
%ADD55R,0.05906X0.05906*%
%ADD57C,0.19685*%
%ADD58C,0.00799*%
%ADD59C,0.01402*%
%ADD60C,0.01968*%
%ADD61C,0.01000*%
%ADD62C,0.01378*%
%ADD63C,0.01181*%
G36*
X175000Y0D02*
X0D01*
Y175000D01*
X175000D01*
Y0D01*
D02*
G37*
%LPC*%
G36*
X101757Y163291D02*
X101243D01*
X100768Y163095D01*
X100405Y162732D01*
X100209Y162257D01*
Y161743D01*
X100405Y161268D01*
X100768Y160905D01*
X101243Y160709D01*
X101757D01*
X102232Y160905D01*
X102595Y161268D01*
X102791Y161743D01*
Y162257D01*
X102595Y162732D01*
X102232Y163095D01*
X101757Y163291D01*
D02*
G37*
G36*
X78757Y174291D02*
X78243D01*
X77768Y174095D01*
X77405Y173732D01*
X77209Y173257D01*
Y172743D01*
X77405Y172268D01*
X77768Y171905D01*
X78243Y171709D01*
X78364D01*
X85490Y164582D01*
Y140989D01*
X84990Y140695D01*
X84757Y140791D01*
X84243D01*
X83768Y140595D01*
X83405Y140232D01*
X83209Y139757D01*
Y139243D01*
X83405Y138768D01*
X83490Y138683D01*
Y124951D01*
X78360Y119821D01*
X77870Y119918D01*
X77866Y119927D01*
X77781Y120012D01*
Y133674D01*
X77704Y134060D01*
X77576Y134253D01*
X77425Y134618D01*
X77118Y134924D01*
X76717Y135091D01*
X76283D01*
X75882Y134924D01*
X75576Y134618D01*
X75410Y134217D01*
Y133783D01*
X75576Y133382D01*
X75762Y133196D01*
Y120205D01*
X74728D01*
X74719Y120214D01*
X74391Y120433D01*
X74005Y120510D01*
X53489D01*
X53102Y120433D01*
X52775Y120214D01*
X47010Y114448D01*
X46510Y114655D01*
Y123000D01*
X46433Y123386D01*
X46214Y123714D01*
X43324Y126604D01*
X42997Y126822D01*
X42610Y126899D01*
X41562D01*
X41284Y127315D01*
X41291Y127332D01*
Y127845D01*
X41095Y128320D01*
X40731Y128683D01*
X40257Y128880D01*
X39743D01*
X39268Y128683D01*
X38905Y128320D01*
X38879Y128256D01*
X38403Y128162D01*
X38010Y128508D01*
Y130208D01*
X38510Y130415D01*
X38628Y130297D01*
X39103Y130100D01*
X39616D01*
X40091Y130297D01*
X40454Y130660D01*
X40651Y131135D01*
Y131648D01*
X40454Y132123D01*
X40091Y132486D01*
X39616Y132683D01*
X39103D01*
X38628Y132486D01*
X38510Y132368D01*
X38010Y132575D01*
Y138768D01*
X38510Y139063D01*
X38743Y138966D01*
X39257D01*
X39731Y139163D01*
X40095Y139526D01*
X40291Y140001D01*
Y140514D01*
X40095Y140989D01*
X39731Y141352D01*
X39257Y141549D01*
X38743D01*
X38510Y141452D01*
X38010Y141747D01*
Y148683D01*
X38095Y148768D01*
X38291Y149243D01*
Y149757D01*
X38095Y150232D01*
X37732Y150595D01*
X37377Y150742D01*
X37232Y151120D01*
X37219Y151291D01*
X46418Y160491D01*
X48683D01*
X48768Y160405D01*
X49243Y160209D01*
X49757D01*
X50231Y160405D01*
X50595Y160768D01*
X50791Y161243D01*
Y161757D01*
X50595Y162232D01*
X50231Y162595D01*
X49757Y162791D01*
X49243D01*
X48768Y162595D01*
X48683Y162510D01*
X46000D01*
X45614Y162433D01*
X45286Y162214D01*
X18117Y135045D01*
X17898Y134717D01*
X17821Y134331D01*
Y82025D01*
X17397Y81909D01*
X17321Y81906D01*
X16892Y82335D01*
X16313Y82575D01*
X15687D01*
X15108Y82335D01*
X14665Y81892D01*
X14425Y81313D01*
Y80687D01*
X14665Y80108D01*
X14990Y79782D01*
Y72500D01*
X15067Y72114D01*
X15286Y71786D01*
X16209Y70864D01*
Y70743D01*
X16405Y70268D01*
X16769Y69905D01*
X17243Y69709D01*
X17757D01*
X18232Y69905D01*
X18595Y70268D01*
X18791Y70743D01*
Y71257D01*
X18595Y71732D01*
X18232Y72095D01*
X17757Y72291D01*
X17636D01*
X17009Y72918D01*
Y79729D01*
X17361Y80072D01*
X17821Y79945D01*
Y73669D01*
X17898Y73283D01*
X18117Y72955D01*
X28709Y62364D01*
Y62243D01*
X28905Y61769D01*
X28990Y61683D01*
Y56989D01*
X28974Y56978D01*
X28490Y56836D01*
X28231Y57095D01*
X27757Y57291D01*
X27243D01*
X26768Y57095D01*
X26405Y56731D01*
X26209Y56257D01*
Y55743D01*
X26405Y55269D01*
X26768Y54905D01*
X27243Y54709D01*
X27574D01*
X27798Y54226D01*
X23286Y49714D01*
X23067Y49386D01*
X22990Y49000D01*
Y27500D01*
X23067Y27114D01*
X23286Y26786D01*
X30786Y19286D01*
X31114Y19067D01*
X31500Y18991D01*
X71082D01*
X82786Y7286D01*
X83114Y7067D01*
X83500Y6990D01*
X101000D01*
X101386Y7067D01*
X101714Y7286D01*
X133714Y39286D01*
X133933Y39614D01*
X134010Y40000D01*
Y47409D01*
X134471Y47601D01*
X147030Y35042D01*
Y34450D01*
X146530Y34178D01*
X146257Y34291D01*
X145743D01*
X145268Y34095D01*
X144905Y33731D01*
X144709Y33257D01*
Y32743D01*
X144905Y32269D01*
X144991Y32183D01*
Y31418D01*
X144082Y30510D01*
X135817D01*
X135731Y30595D01*
X135257Y30791D01*
X134743D01*
X134268Y30595D01*
X133905Y30231D01*
X133709Y29757D01*
Y29243D01*
X133905Y28769D01*
X134268Y28405D01*
X134743Y28209D01*
X135257D01*
X135731Y28405D01*
X135817Y28490D01*
X144500D01*
X144886Y28567D01*
X145214Y28786D01*
X146714Y30286D01*
X146933Y30614D01*
X146986Y30880D01*
X147301Y31037D01*
X147510Y31063D01*
X148209Y30364D01*
Y30243D01*
X148405Y29768D01*
X148768Y29405D01*
X149243Y29209D01*
X149757D01*
X150232Y29405D01*
X150595Y29768D01*
X150791Y30243D01*
Y30757D01*
X150595Y31231D01*
X150232Y31595D01*
X149757Y31791D01*
X149636D01*
X149049Y32379D01*
Y35461D01*
X148972Y35847D01*
X148753Y36174D01*
X134010Y50918D01*
Y53183D01*
X134095Y53268D01*
X134291Y53743D01*
Y54257D01*
X134095Y54732D01*
X134010Y54817D01*
Y58175D01*
X138791Y62957D01*
X139570D01*
X139956Y63033D01*
X140284Y63252D01*
X141157Y64125D01*
X141376Y64453D01*
X141453Y64839D01*
Y65618D01*
X147204Y71369D01*
X147423Y71697D01*
X147500Y72083D01*
Y91563D01*
X147933Y91813D01*
X148132Y91698D01*
X149033Y91457D01*
X149967D01*
X150868Y91698D01*
X151676Y92165D01*
X152335Y92824D01*
X152802Y93632D01*
X153043Y94533D01*
Y95467D01*
X152802Y96368D01*
X152335Y97176D01*
X151676Y97835D01*
X150868Y98302D01*
X149967Y98543D01*
X149033D01*
X148132Y98302D01*
X147324Y97835D01*
X147000Y97511D01*
X146500Y97718D01*
Y102282D01*
X147000Y102489D01*
X147324Y102165D01*
X148132Y101698D01*
X149033Y101457D01*
X149967D01*
X150868Y101698D01*
X151676Y102165D01*
X152335Y102824D01*
X152802Y103632D01*
X153043Y104534D01*
Y105466D01*
X152802Y106368D01*
X152335Y107176D01*
X151676Y107835D01*
X150868Y108302D01*
X149967Y108543D01*
X149033D01*
X148132Y108302D01*
X147324Y107835D01*
X147000Y107511D01*
X146500Y107718D01*
Y112282D01*
X147000Y112489D01*
X147324Y112165D01*
X148132Y111698D01*
X149033Y111457D01*
X149967D01*
X150868Y111698D01*
X151676Y112165D01*
X152335Y112824D01*
X152802Y113632D01*
X153043Y114533D01*
Y115466D01*
X152802Y116368D01*
X152335Y117176D01*
X151676Y117835D01*
X150868Y118302D01*
X149967Y118543D01*
X149033D01*
X148132Y118302D01*
X147324Y117835D01*
X147000Y117510D01*
X146879Y117510D01*
X146465Y117683D01*
X146423Y117896D01*
X146204Y118224D01*
X143291Y121136D01*
Y121257D01*
X143095Y121731D01*
X142731Y122095D01*
X142257Y122291D01*
X141743D01*
X141269Y122095D01*
X140990Y121817D01*
X140589Y121913D01*
X140490Y121970D01*
Y128530D01*
X140589Y128587D01*
X140990Y128683D01*
X141269Y128405D01*
X141743Y128209D01*
X142257D01*
X142731Y128405D01*
X143095Y128769D01*
X143291Y129243D01*
Y129757D01*
X143095Y130231D01*
X142731Y130595D01*
X142257Y130791D01*
X141743D01*
X141269Y130595D01*
X140990Y130317D01*
X140589Y130413D01*
X140490Y130470D01*
Y130519D01*
X140413Y130905D01*
X140195Y131233D01*
X135045Y136383D01*
X134717Y136602D01*
X134331Y136679D01*
X132813D01*
X132606Y137179D01*
X143148Y147721D01*
X143254D01*
X143725Y147915D01*
X144085Y148275D01*
X144280Y148746D01*
Y149255D01*
X144085Y149725D01*
X143725Y150085D01*
X143254Y150279D01*
X142745D01*
X142275Y150085D01*
X141915Y149725D01*
X141720Y149255D01*
Y149148D01*
X122510Y129937D01*
X122010Y130144D01*
Y138000D01*
X121933Y138386D01*
X121714Y138714D01*
X121702Y138726D01*
X121926Y139209D01*
X122257D01*
X122731Y139405D01*
X123095Y139769D01*
X123291Y140243D01*
Y140757D01*
X123095Y141232D01*
X122731Y141595D01*
X122257Y141791D01*
X121743D01*
X121268Y141595D01*
X120905Y141232D01*
X120709Y140757D01*
Y140383D01*
X120368Y140130D01*
X120247Y140090D01*
X120194Y140125D01*
X119808Y140202D01*
X119797D01*
X119291Y140708D01*
Y140757D01*
X119095Y141232D01*
X118731Y141595D01*
X118257Y141791D01*
X117743D01*
X117269Y141595D01*
X116905Y141232D01*
X116709Y140757D01*
Y140243D01*
X116905Y139769D01*
X117269Y139405D01*
X117743Y139209D01*
X117935D01*
X118665Y138479D01*
X118992Y138260D01*
X119379Y138183D01*
X119389D01*
X119746Y137826D01*
X119718Y137496D01*
X119470Y137078D01*
X118956D01*
X118482Y136882D01*
X118118Y136519D01*
X117922Y136044D01*
Y135530D01*
X118118Y135055D01*
X118203Y134970D01*
Y105131D01*
X113286Y100214D01*
X113067Y99886D01*
X112990Y99500D01*
Y89418D01*
X107891Y84319D01*
X106400D01*
X106208Y84781D01*
X106714Y85286D01*
X106933Y85614D01*
X107009Y86000D01*
Y93082D01*
X110021Y96093D01*
X110240Y96421D01*
X110317Y96807D01*
Y110084D01*
X110240Y110471D01*
X110021Y110798D01*
X109213Y111606D01*
Y116820D01*
X110021Y117628D01*
X110240Y117955D01*
X110317Y118342D01*
Y132281D01*
X114030Y135995D01*
X114453Y135711D01*
X114410Y135606D01*
Y135172D01*
X114576Y134772D01*
X114883Y134465D01*
X115284Y134299D01*
X115717D01*
X116118Y134465D01*
X116425Y134772D01*
X116591Y135172D01*
Y135606D01*
X116425Y136007D01*
X116118Y136314D01*
X115717Y136480D01*
X115284D01*
X115008Y136366D01*
X114689Y136665D01*
X114641Y136725D01*
X114715Y137098D01*
Y137747D01*
X114916Y137947D01*
X115112Y138422D01*
Y138936D01*
X114916Y139410D01*
X114552Y139774D01*
X114078Y139970D01*
X113605D01*
X113513Y140079D01*
X113351Y140423D01*
X119572Y146644D01*
X125619D01*
X126005Y146721D01*
X126333Y146940D01*
X139104Y159711D01*
X139322Y160038D01*
X139399Y160424D01*
Y163610D01*
X139322Y163997D01*
X139104Y164324D01*
X132791Y170636D01*
Y170757D01*
X132595Y171231D01*
X132231Y171595D01*
X131757Y171791D01*
X131243D01*
X130769Y171595D01*
X130405Y171231D01*
X130209Y170757D01*
Y170243D01*
X130405Y169769D01*
X130769Y169405D01*
X131243Y169209D01*
X131364D01*
X137380Y163192D01*
Y160843D01*
X125206Y148668D01*
X124762Y148712D01*
X124584Y149156D01*
X135136Y159709D01*
X135257D01*
X135731Y159905D01*
X136095Y160268D01*
X136291Y160743D01*
Y161257D01*
X136095Y161732D01*
X135731Y162095D01*
X135257Y162291D01*
X134743D01*
X134268Y162095D01*
X133905Y161732D01*
X133709Y161257D01*
Y161136D01*
X122701Y150129D01*
X120417Y152413D01*
X120090Y152631D01*
X119704Y152708D01*
X118296D01*
X117910Y152631D01*
X117582Y152413D01*
X105806Y140636D01*
X105587Y140308D01*
X105510Y139922D01*
Y134035D01*
X92956Y121481D01*
X92495Y121727D01*
X92510Y121801D01*
Y126183D01*
X92595Y126268D01*
X92791Y126743D01*
Y127257D01*
X92595Y127732D01*
X92232Y128095D01*
X91757Y128291D01*
X91243D01*
X90768Y128095D01*
X90405Y127732D01*
X90209Y127257D01*
Y126743D01*
X90405Y126268D01*
X90490Y126183D01*
Y122219D01*
X87062Y118791D01*
X86942D01*
X86467Y118595D01*
X86104Y118231D01*
X85908Y117757D01*
Y117243D01*
X86104Y116769D01*
X86467Y116405D01*
X86695Y116311D01*
X86596Y115811D01*
X85617D01*
X84791Y116636D01*
Y116757D01*
X84595Y117232D01*
X84232Y117595D01*
X84230Y117595D01*
X84113Y118185D01*
X89214Y123286D01*
X89433Y123614D01*
X89510Y124000D01*
Y131053D01*
X89743Y131209D01*
X90257D01*
X90732Y131405D01*
X91095Y131769D01*
X91291Y132243D01*
Y132757D01*
X91095Y133231D01*
X90732Y133595D01*
X90257Y133791D01*
X89743D01*
X89708Y133777D01*
X89208Y134111D01*
Y138683D01*
X89294Y138768D01*
X89329Y138854D01*
X89870D01*
X89905Y138768D01*
X90268Y138405D01*
X90743Y138209D01*
X91257D01*
X91732Y138405D01*
X92095Y138768D01*
X92291Y139243D01*
Y139757D01*
X92095Y140232D01*
X91732Y140595D01*
X91257Y140791D01*
X90743D01*
X90268Y140595D01*
X89905Y140232D01*
X89870Y140146D01*
X89329D01*
X89294Y140232D01*
X88930Y140595D01*
X88456Y140791D01*
X87942D01*
X87925Y140784D01*
X87510Y141062D01*
Y165000D01*
X87433Y165386D01*
X87214Y165714D01*
X79791Y173136D01*
Y173257D01*
X79595Y173732D01*
X79232Y174095D01*
X78757Y174291D01*
D02*
G37*
G36*
X159967Y148543D02*
X159034D01*
X158132Y148302D01*
X157324Y147835D01*
X156665Y147176D01*
X156198Y146368D01*
X155957Y145466D01*
Y144534D01*
X156198Y143632D01*
X156665Y142824D01*
X157324Y142165D01*
X158132Y141698D01*
X159034Y141457D01*
X159967D01*
X160868Y141698D01*
X161676Y142165D01*
X162335Y142824D01*
X162802Y143632D01*
X163043Y144534D01*
Y145466D01*
X162802Y146368D01*
X162335Y147176D01*
X161676Y147835D01*
X160868Y148302D01*
X159967Y148543D01*
D02*
G37*
G36*
X149967D02*
X149033D01*
X148132Y148302D01*
X147324Y147835D01*
X146665Y147176D01*
X146198Y146368D01*
X145957Y145466D01*
Y144534D01*
X146198Y143632D01*
X146665Y142824D01*
X147324Y142165D01*
X148132Y141698D01*
X149033Y141457D01*
X149967D01*
X150868Y141698D01*
X151676Y142165D01*
X152335Y142824D01*
X152802Y143632D01*
X153043Y144534D01*
Y145466D01*
X152802Y146368D01*
X152335Y147176D01*
X151676Y147835D01*
X150868Y148302D01*
X149967Y148543D01*
D02*
G37*
G36*
X47257Y141291D02*
X46743D01*
X46268Y141095D01*
X45905Y140732D01*
X45709Y140257D01*
Y139743D01*
X45905Y139269D01*
X46268Y138905D01*
X46743Y138709D01*
X47257D01*
X47732Y138905D01*
X48095Y139269D01*
X48291Y139743D01*
Y140257D01*
X48095Y140732D01*
X47732Y141095D01*
X47257Y141291D01*
D02*
G37*
G36*
X96757Y140791D02*
X96243D01*
X95768Y140595D01*
X95405Y140232D01*
X95209Y139757D01*
Y139243D01*
X95405Y138768D01*
X95768Y138405D01*
X96243Y138209D01*
X96757D01*
X97232Y138405D01*
X97595Y138768D01*
X97791Y139243D01*
Y139757D01*
X97595Y140232D01*
X97232Y140595D01*
X96757Y140791D01*
D02*
G37*
G36*
X103061Y137673D02*
X102628D01*
X102227Y137507D01*
X101920Y137200D01*
X101754Y136800D01*
Y136366D01*
X101920Y135965D01*
X102227Y135658D01*
X102628Y135492D01*
X103061D01*
X103462Y135658D01*
X103769Y135965D01*
X103935Y136366D01*
Y136800D01*
X103769Y137200D01*
X103462Y137507D01*
X103061Y137673D01*
D02*
G37*
G36*
X64757Y135203D02*
X64243D01*
X63769Y135006D01*
X63405Y134643D01*
X63209Y134168D01*
Y133655D01*
X63405Y133180D01*
X63769Y132817D01*
X64243Y132620D01*
X64757D01*
X65232Y132817D01*
X65595Y133180D01*
X65791Y133655D01*
Y134168D01*
X65595Y134643D01*
X65232Y135006D01*
X64757Y135203D01*
D02*
G37*
G36*
X55257Y134291D02*
X54743D01*
X54268Y134095D01*
X53905Y133731D01*
X53709Y133257D01*
Y132743D01*
X53905Y132269D01*
X54268Y131905D01*
X54743Y131709D01*
X55257D01*
X55731Y131905D01*
X56095Y132269D01*
X56291Y132743D01*
Y133257D01*
X56095Y133731D01*
X55731Y134095D01*
X55257Y134291D01*
D02*
G37*
G36*
X159967Y138543D02*
X159034D01*
X158132Y138302D01*
X157324Y137835D01*
X156665Y137176D01*
X156198Y136368D01*
X155957Y135467D01*
Y134534D01*
X156198Y133632D01*
X156665Y132824D01*
X157324Y132165D01*
X158132Y131698D01*
X159034Y131457D01*
X159967D01*
X160868Y131698D01*
X161676Y132165D01*
X162335Y132824D01*
X162802Y133632D01*
X163043Y134534D01*
Y135467D01*
X162802Y136368D01*
X162335Y137176D01*
X161676Y137835D01*
X160868Y138302D01*
X159967Y138543D01*
D02*
G37*
G36*
X149967D02*
X149033D01*
X148132Y138302D01*
X147324Y137835D01*
X146665Y137176D01*
X146198Y136368D01*
X145957Y135467D01*
Y134534D01*
X146198Y133632D01*
X146665Y132824D01*
X147324Y132165D01*
X148132Y131698D01*
X149033Y131457D01*
X149967D01*
X150868Y131698D01*
X151676Y132165D01*
X152335Y132824D01*
X152802Y133632D01*
X153043Y134534D01*
Y135467D01*
X152802Y136368D01*
X152335Y137176D01*
X151676Y137835D01*
X150868Y138302D01*
X149967Y138543D01*
D02*
G37*
G36*
X49757Y132791D02*
X49243D01*
X48768Y132595D01*
X48405Y132231D01*
X48209Y131757D01*
Y131243D01*
X48405Y130769D01*
X48768Y130405D01*
X49243Y130209D01*
X49757D01*
X50231Y130405D01*
X50595Y130769D01*
X50791Y131243D01*
Y131757D01*
X50595Y132231D01*
X50231Y132595D01*
X49757Y132791D01*
D02*
G37*
G36*
X159967Y128543D02*
X159034D01*
X158132Y128302D01*
X157324Y127835D01*
X156665Y127176D01*
X156198Y126368D01*
X155957Y125467D01*
Y124533D01*
X156198Y123632D01*
X156665Y122824D01*
X157324Y122165D01*
X158132Y121698D01*
X159034Y121457D01*
X159967D01*
X160868Y121698D01*
X161676Y122165D01*
X162335Y122824D01*
X162802Y123632D01*
X163043Y124533D01*
Y125467D01*
X162802Y126368D01*
X162335Y127176D01*
X161676Y127835D01*
X160868Y128302D01*
X159967Y128543D01*
D02*
G37*
G36*
X149967D02*
X149033D01*
X148132Y128302D01*
X147324Y127835D01*
X146665Y127176D01*
X146198Y126368D01*
X145957Y125467D01*
Y124533D01*
X146198Y123632D01*
X146665Y122824D01*
X147324Y122165D01*
X148132Y121698D01*
X149033Y121457D01*
X149967D01*
X150868Y121698D01*
X151676Y122165D01*
X152335Y122824D01*
X152802Y123632D01*
X153043Y124533D01*
Y125467D01*
X152802Y126368D01*
X152335Y127176D01*
X151676Y127835D01*
X150868Y128302D01*
X149967Y128543D01*
D02*
G37*
G36*
X112757Y121291D02*
X112243D01*
X111768Y121095D01*
X111405Y120731D01*
X111209Y120257D01*
Y119743D01*
X111405Y119269D01*
X111605Y119068D01*
X111715Y118750D01*
X111605Y118432D01*
X111405Y118231D01*
X111209Y117757D01*
Y117243D01*
X111405Y116769D01*
X111768Y116405D01*
X112243Y116209D01*
X112757D01*
X113232Y116405D01*
X113595Y116769D01*
X113791Y117243D01*
Y117757D01*
X113595Y118231D01*
X113395Y118432D01*
X113285Y118750D01*
X113395Y119068D01*
X113595Y119269D01*
X113791Y119743D01*
Y120257D01*
X113595Y120731D01*
X113232Y121095D01*
X112757Y121291D01*
D02*
G37*
G36*
X159967Y118543D02*
X159034D01*
X158132Y118302D01*
X157324Y117835D01*
X156665Y117176D01*
X156198Y116368D01*
X155957Y115466D01*
Y114533D01*
X156198Y113632D01*
X156665Y112824D01*
X157324Y112165D01*
X158132Y111698D01*
X159034Y111457D01*
X159967D01*
X160868Y111698D01*
X161676Y112165D01*
X162335Y112824D01*
X162802Y113632D01*
X163043Y114533D01*
Y115466D01*
X162802Y116368D01*
X162335Y117176D01*
X161676Y117835D01*
X160868Y118302D01*
X159967Y118543D01*
D02*
G37*
G36*
X113257Y107600D02*
X112743D01*
X112268Y107404D01*
X111905Y107041D01*
X111709Y106566D01*
Y106052D01*
X111905Y105578D01*
X112268Y105214D01*
X112743Y105018D01*
X113257D01*
X113732Y105214D01*
X114095Y105578D01*
X114291Y106052D01*
Y106566D01*
X114095Y107041D01*
X113732Y107404D01*
X113257Y107600D01*
D02*
G37*
G36*
X159967Y108543D02*
X159034D01*
X158132Y108302D01*
X157324Y107835D01*
X156665Y107176D01*
X156198Y106368D01*
X155957Y105466D01*
Y104534D01*
X156198Y103632D01*
X156665Y102824D01*
X157324Y102165D01*
X158132Y101698D01*
X159034Y101457D01*
X159967D01*
X160868Y101698D01*
X161676Y102165D01*
X162335Y102824D01*
X162802Y103632D01*
X163043Y104534D01*
Y105466D01*
X162802Y106368D01*
X162335Y107176D01*
X161676Y107835D01*
X160868Y108302D01*
X159967Y108543D01*
D02*
G37*
G36*
Y98543D02*
X159034D01*
X158132Y98302D01*
X157324Y97835D01*
X156665Y97176D01*
X156198Y96368D01*
X155957Y95467D01*
Y94533D01*
X156198Y93632D01*
X156665Y92824D01*
X157324Y92165D01*
X158132Y91698D01*
X159034Y91457D01*
X159967D01*
X160868Y91698D01*
X161676Y92165D01*
X162335Y92824D01*
X162802Y93632D01*
X163043Y94533D01*
Y95467D01*
X162802Y96368D01*
X162335Y97176D01*
X161676Y97835D01*
X160868Y98302D01*
X159967Y98543D01*
D02*
G37*
G36*
X153687Y90620D02*
X153253D01*
X152852Y90454D01*
X152546Y90148D01*
X152380Y89747D01*
Y89313D01*
X152546Y88912D01*
X152852Y88605D01*
X153253Y88439D01*
X153687D01*
X154088Y88605D01*
X154395Y88912D01*
X154561Y89313D01*
Y89747D01*
X154395Y90148D01*
X154088Y90454D01*
X153687Y90620D01*
D02*
G37*
G36*
X150937Y73590D02*
X150503D01*
X150102Y73425D01*
X149795Y73118D01*
X149629Y72717D01*
Y72283D01*
X149795Y71882D01*
X150102Y71575D01*
X150503Y71409D01*
X150937D01*
X151338Y71575D01*
X151645Y71882D01*
X151811Y72283D01*
Y72717D01*
X151645Y73118D01*
X151338Y73425D01*
X150937Y73590D01*
D02*
G37*
G36*
X150257Y49791D02*
X149743D01*
X149268Y49595D01*
X148905Y49231D01*
X148709Y48757D01*
Y48243D01*
X148905Y47769D01*
X149268Y47405D01*
X149636Y47253D01*
Y46747D01*
X149268Y46595D01*
X148905Y46231D01*
X148709Y45757D01*
Y45243D01*
X148905Y44769D01*
X149268Y44405D01*
X149743Y44209D01*
X150257D01*
X150732Y44405D01*
X151095Y44769D01*
X151291Y45243D01*
Y45757D01*
X151095Y46231D01*
X150732Y46595D01*
X150364Y46747D01*
Y47253D01*
X150732Y47405D01*
X151095Y47769D01*
X151291Y48243D01*
Y48757D01*
X151095Y49231D01*
X150732Y49595D01*
X150257Y49791D01*
D02*
G37*
G36*
X150056Y42291D02*
X149542D01*
X149068Y42095D01*
X148705Y41732D01*
X148508Y41257D01*
Y40743D01*
X148705Y40268D01*
X149068Y39905D01*
X149162Y39866D01*
Y39325D01*
X149068Y39286D01*
X148705Y38922D01*
X148508Y38448D01*
Y37934D01*
X148705Y37459D01*
X149068Y37096D01*
X149542Y36900D01*
X150056D01*
X150531Y37096D01*
X150894Y37459D01*
X151091Y37934D01*
Y38448D01*
X150894Y38922D01*
X150531Y39286D01*
X150436Y39325D01*
Y39866D01*
X150531Y39905D01*
X150894Y40268D01*
X151091Y40743D01*
Y41257D01*
X150894Y41732D01*
X150531Y42095D01*
X150056Y42291D01*
D02*
G37*
G36*
X134757Y35291D02*
X134243D01*
X133768Y35095D01*
X133405Y34732D01*
X133209Y34257D01*
Y33743D01*
X133405Y33268D01*
X133768Y32905D01*
X134243Y32709D01*
X134757D01*
X135231Y32905D01*
X135595Y33268D01*
X135791Y33743D01*
Y34257D01*
X135595Y34732D01*
X135231Y35095D01*
X134757Y35291D01*
D02*
G37*
G36*
X46255Y15280D02*
X45746D01*
X45275Y15085D01*
X44915Y14725D01*
X44721Y14254D01*
Y13746D01*
X44915Y13275D01*
X45275Y12915D01*
X45746Y12720D01*
X46255D01*
X46725Y12915D01*
X47085Y13275D01*
X47280Y13746D01*
Y14254D01*
X47085Y14725D01*
X46725Y15085D01*
X46255Y15280D01*
D02*
G37*
G36*
X55257Y13291D02*
X54743D01*
X54268Y13095D01*
X53905Y12731D01*
X53709Y12257D01*
Y11743D01*
X53905Y11269D01*
X54268Y10905D01*
X54743Y10709D01*
X55257D01*
X55731Y10905D01*
X56095Y11269D01*
X56291Y11743D01*
Y12257D01*
X56095Y12731D01*
X55731Y13095D01*
X55257Y13291D01*
D02*
G37*
%LPD*%
G36*
X106908Y131924D02*
Y119335D01*
X101786Y114214D01*
X101567Y113886D01*
X101490Y113500D01*
Y102810D01*
X99595Y100914D01*
X99376Y100587D01*
X99300Y100200D01*
Y93800D01*
X99376Y93413D01*
X99595Y93086D01*
X99800Y92881D01*
Y91843D01*
X99681Y91734D01*
X99300Y91559D01*
X98956Y91701D01*
X98442D01*
X97967Y91505D01*
X97604Y91141D01*
X97443Y90751D01*
X97138Y90686D01*
X96922Y90702D01*
X96786Y91031D01*
X96422Y91394D01*
X95948Y91590D01*
X95434D01*
X94959Y91394D01*
X94596Y91031D01*
X94400Y90556D01*
Y90042D01*
X94596Y89568D01*
X94959Y89205D01*
X95434Y89008D01*
X95948D01*
X96422Y89205D01*
X96786Y89568D01*
X96947Y89958D01*
X97251Y90023D01*
X97468Y90007D01*
X97604Y89678D01*
X97967Y89315D01*
X98442Y89118D01*
X98956D01*
X99370Y89290D01*
X99503Y89294D01*
X99977Y89154D01*
X100095Y88977D01*
X102182Y86891D01*
X102172Y86704D01*
X101833Y86344D01*
X101661Y86323D01*
X101291Y86665D01*
Y86757D01*
X101095Y87231D01*
X100732Y87595D01*
X100257Y87791D01*
X99743D01*
X99269Y87595D01*
X98905Y87231D01*
X98709Y86757D01*
Y86243D01*
X98905Y85769D01*
X99269Y85405D01*
X99544Y85291D01*
X99444Y84791D01*
X99243D01*
X98769Y84595D01*
X98405Y84232D01*
X98209Y83757D01*
Y83243D01*
X98256Y83128D01*
X97922Y82628D01*
X79763D01*
X79555Y83128D01*
X81418Y84990D01*
X89183D01*
X89268Y84905D01*
X89743Y84709D01*
X90257D01*
X90732Y84905D01*
X91095Y85268D01*
X91291Y85743D01*
Y86257D01*
X91095Y86731D01*
X90732Y87095D01*
X90257Y87291D01*
X89743D01*
X89268Y87095D01*
X89183Y87010D01*
X81000D01*
X80614Y86933D01*
X80286Y86714D01*
X75286Y81714D01*
X75067Y81386D01*
X74990Y81000D01*
Y75500D01*
X75067Y75114D01*
X75286Y74786D01*
X78786Y71286D01*
X78786Y71286D01*
X79847Y70225D01*
X80175Y70006D01*
X80561Y69929D01*
X86071D01*
X86457Y70006D01*
X86784Y70225D01*
X87550Y70990D01*
X88349D01*
X88501Y70715D01*
X88582Y70490D01*
X88404Y70061D01*
Y69547D01*
X88420Y69510D01*
X88086Y69010D01*
X83109D01*
X82722Y68933D01*
X82395Y68714D01*
X81261Y67580D01*
X81037Y67599D01*
X80575Y67768D01*
Y68394D01*
X80335Y68973D01*
X79892Y69416D01*
X79313Y69656D01*
X78687D01*
X78108Y69416D01*
X77665Y68973D01*
X77425Y68394D01*
Y67767D01*
X77488Y67616D01*
X77154Y67116D01*
X74144D01*
X73984Y67276D01*
Y72233D01*
X73907Y72619D01*
X73688Y72947D01*
X71532Y75104D01*
X71204Y75323D01*
X70818Y75399D01*
X56459D01*
X52679Y79180D01*
Y90251D01*
X54339Y91911D01*
X54839Y91704D01*
Y91687D01*
X55079Y91108D01*
X55522Y90665D01*
X56101Y90425D01*
X56727D01*
X57306Y90665D01*
X57749Y91108D01*
X57989Y91687D01*
Y92313D01*
X57749Y92892D01*
X57306Y93335D01*
X56727Y93575D01*
X56710D01*
X56502Y94075D01*
X67749Y105322D01*
X76879D01*
X77265Y105398D01*
X77593Y105617D01*
X81714Y109738D01*
X81933Y110066D01*
X82010Y110452D01*
Y115511D01*
X82026Y115522D01*
X82510Y115664D01*
X82768Y115405D01*
X83243Y115209D01*
X83364D01*
X84485Y114087D01*
X84812Y113868D01*
X85199Y113792D01*
X87704D01*
X88090Y113868D01*
X88418Y114087D01*
X106446Y132116D01*
X106908Y131924D01*
D02*
G37*
G36*
X61478Y116181D02*
X61269Y116095D01*
X60905Y115732D01*
X60709Y115257D01*
Y114743D01*
X60905Y114269D01*
X61269Y113905D01*
X61743Y113709D01*
X62257D01*
X62731Y113905D01*
X62932Y114105D01*
X63250Y114215D01*
X63568Y114105D01*
X63769Y113905D01*
X64243Y113709D01*
X64757D01*
X65232Y113905D01*
X65595Y114269D01*
X65791Y114743D01*
X65932Y114837D01*
X66243Y114709D01*
X66757D01*
X67068Y114837D01*
X67209Y114743D01*
X67405Y114269D01*
X67769Y113905D01*
X68243Y113709D01*
X68757D01*
X69231Y113905D01*
X69595Y114269D01*
X69791Y114743D01*
Y115257D01*
X69595Y115732D01*
X69331Y115995D01*
X69462Y116460D01*
X69484Y116495D01*
X73596D01*
X73888Y115995D01*
X73789Y115757D01*
Y115243D01*
X73986Y114769D01*
X74349Y114405D01*
X74824Y114209D01*
X75338D01*
X75812Y114405D01*
X76175Y114769D01*
X76372Y115243D01*
Y115757D01*
X76273Y115995D01*
X76565Y116495D01*
X77472D01*
X77858Y116572D01*
X77990Y116660D01*
X78490Y116415D01*
Y113359D01*
X77990Y113152D01*
X77948Y113195D01*
X77473Y113392D01*
X76959D01*
X76485Y113195D01*
X76121Y112832D01*
X75925Y112357D01*
Y111844D01*
X76121Y111369D01*
X76485Y111006D01*
X76959Y110809D01*
X77257D01*
X77464Y110309D01*
X75893Y108738D01*
X66763D01*
X66377Y108661D01*
X66049Y108442D01*
X50361Y92754D01*
X49899Y92946D01*
Y112506D01*
X54075Y116681D01*
X61378D01*
X61478Y116181D01*
D02*
G37*
%LPC*%
G36*
X103757Y120291D02*
X103243D01*
X102769Y120095D01*
X102405Y119731D01*
X102209Y119257D01*
Y118743D01*
X102405Y118269D01*
X102769Y117905D01*
X103243Y117709D01*
X103757D01*
X104232Y117905D01*
X104595Y118269D01*
X104791Y118743D01*
Y119257D01*
X104595Y119731D01*
X104232Y120095D01*
X103757Y120291D01*
D02*
G37*
G36*
X100257Y117791D02*
X99743D01*
X99269Y117595D01*
X99068Y117395D01*
X98750Y117285D01*
X98432Y117395D01*
X98232Y117595D01*
X97757Y117791D01*
X97243D01*
X96768Y117595D01*
X96568Y117395D01*
X96250Y117285D01*
X95932Y117395D01*
X95732Y117595D01*
X95257Y117791D01*
X94743D01*
X94269Y117595D01*
X93905Y117232D01*
X93709Y116757D01*
Y116243D01*
X93905Y115769D01*
X94269Y115405D01*
X94743Y115209D01*
X95257D01*
X95732Y115405D01*
X95932Y115605D01*
X96250Y115715D01*
X96568Y115605D01*
X96768Y115405D01*
X97243Y115209D01*
X97757D01*
X98232Y115405D01*
X98432Y115605D01*
X98750Y115715D01*
X99068Y115605D01*
X99269Y115405D01*
X99743Y115209D01*
X100257D01*
X100732Y115405D01*
X101095Y115769D01*
X101291Y116243D01*
Y116757D01*
X101095Y117232D01*
X100732Y117595D01*
X100257Y117791D01*
D02*
G37*
G36*
X94757Y100291D02*
X94243D01*
X93769Y100095D01*
X93405Y99731D01*
X93209Y99257D01*
Y98743D01*
X93405Y98269D01*
X93605Y98068D01*
X93715Y97750D01*
X93605Y97432D01*
X93405Y97232D01*
X93209Y96757D01*
Y96243D01*
X93405Y95768D01*
X93769Y95405D01*
X94243Y95209D01*
X94757D01*
X95231Y95405D01*
X95595Y95768D01*
X95791Y96243D01*
Y96757D01*
X95595Y97232D01*
X95395Y97432D01*
X95285Y97750D01*
X95395Y98068D01*
X95595Y98269D01*
X95791Y98743D01*
Y99257D01*
X95595Y99731D01*
X95231Y100095D01*
X94757Y100291D01*
D02*
G37*
G36*
X68257Y98012D02*
X67743D01*
X67269Y97815D01*
X66905Y97452D01*
X66709Y96977D01*
Y96464D01*
X66905Y95989D01*
X67269Y95626D01*
X67743Y95429D01*
X67864D01*
X69204Y94089D01*
X69532Y93870D01*
X69918Y93793D01*
X76085D01*
X76170Y93708D01*
X76645Y93511D01*
X77159D01*
X77633Y93708D01*
X77997Y94071D01*
X78193Y94546D01*
Y95059D01*
X77997Y95534D01*
X77633Y95897D01*
X77159Y96094D01*
X76645D01*
X76170Y95897D01*
X76085Y95812D01*
X70336D01*
X69291Y96857D01*
Y96977D01*
X69095Y97452D01*
X68731Y97815D01*
X68257Y98012D01*
D02*
G37*
G36*
X85757Y91291D02*
X85243D01*
X84768Y91095D01*
X84568Y90895D01*
X84250Y90785D01*
X83932Y90895D01*
X83732Y91095D01*
X83257Y91291D01*
X82743D01*
X82269Y91095D01*
X81905Y90732D01*
X81709Y90257D01*
Y89743D01*
X81905Y89268D01*
X82269Y88905D01*
X82743Y88709D01*
X83257D01*
X83732Y88905D01*
X83932Y89105D01*
X84250Y89215D01*
X84568Y89105D01*
X84768Y88905D01*
X85243Y88709D01*
X85757D01*
X86231Y88905D01*
X86595Y89268D01*
X86791Y89743D01*
Y90257D01*
X86595Y90732D01*
X86231Y91095D01*
X85757Y91291D01*
D02*
G37*
G36*
X65313Y93575D02*
X64687D01*
X64108Y93335D01*
X63665Y92892D01*
X63425Y92313D01*
Y91687D01*
X63665Y91108D01*
X64108Y90665D01*
X64687Y90425D01*
X64946D01*
X65278Y89925D01*
X65209Y89757D01*
Y89243D01*
X65096Y89075D01*
X64687D01*
X64108Y88835D01*
X63665Y88392D01*
X63425Y87813D01*
Y87187D01*
X63665Y86608D01*
X64108Y86165D01*
X64687Y85925D01*
X65313D01*
X65892Y86165D01*
X66335Y86608D01*
X66575Y87187D01*
Y87813D01*
X66924Y88278D01*
X67232Y88405D01*
X67595Y88769D01*
X67791Y89243D01*
Y89757D01*
X67595Y90232D01*
X67232Y90595D01*
X66757Y90791D01*
X66704D01*
X66646Y90841D01*
X66411Y91291D01*
X66575Y91687D01*
Y92313D01*
X66335Y92892D01*
X65892Y93335D01*
X65313Y93575D01*
D02*
G37*
G36*
X61313Y88575D02*
X60687D01*
X60108Y88335D01*
X59665Y87892D01*
X59425Y87313D01*
Y86687D01*
X59665Y86108D01*
X60108Y85665D01*
X60687Y85425D01*
X61313D01*
X61892Y85665D01*
X62335Y86108D01*
X62575Y86687D01*
Y87313D01*
X62335Y87892D01*
X61892Y88335D01*
X61313Y88575D01*
D02*
G37*
G36*
X71130Y87392D02*
X70504D01*
X69925Y87152D01*
X69482Y86709D01*
X69242Y86130D01*
Y85504D01*
X69482Y84925D01*
X69925Y84482D01*
X70504Y84242D01*
X71130D01*
X71709Y84482D01*
X72152Y84925D01*
X72392Y85504D01*
Y86130D01*
X72152Y86709D01*
X71709Y87152D01*
X71130Y87392D01*
D02*
G37*
G36*
X56728Y86575D02*
X56102D01*
X55523Y86335D01*
X55080Y85892D01*
X54840Y85313D01*
Y84687D01*
X55080Y84108D01*
X55523Y83665D01*
X56102Y83425D01*
X56728D01*
X57307Y83665D01*
X57750Y84108D01*
X57990Y84687D01*
Y85313D01*
X57750Y85892D01*
X57307Y86335D01*
X56728Y86575D01*
D02*
G37*
G36*
X68363Y84575D02*
X67737D01*
X67158Y84335D01*
X66715Y83892D01*
X66475Y83313D01*
Y82687D01*
X66715Y82108D01*
X67158Y81665D01*
X67737Y81425D01*
X68363D01*
X68942Y81665D01*
X69385Y82108D01*
X69625Y82687D01*
Y83313D01*
X69385Y83892D01*
X68942Y84335D01*
X68363Y84575D01*
D02*
G37*
G36*
X60313Y80075D02*
X59687D01*
X59108Y79835D01*
X58814Y79541D01*
X58500Y79444D01*
X58186Y79541D01*
X57892Y79835D01*
X57313Y80075D01*
X56687D01*
X56108Y79835D01*
X55665Y79392D01*
X55425Y78813D01*
Y78187D01*
X55665Y77608D01*
X56108Y77165D01*
X56687Y76925D01*
X57313D01*
X57892Y77165D01*
X58186Y77459D01*
X58500Y77557D01*
X58814Y77459D01*
X59108Y77165D01*
X59687Y76925D01*
X60313D01*
X60892Y77165D01*
X61006Y77279D01*
X61039Y77284D01*
X61567Y77133D01*
X61719Y76767D01*
X62162Y76324D01*
X62741Y76084D01*
X63367D01*
X63946Y76324D01*
X64389Y76767D01*
X64629Y77346D01*
Y77972D01*
X64389Y78551D01*
X63946Y78994D01*
X63367Y79233D01*
X62741D01*
X62162Y78994D01*
X62047Y78879D01*
X62015Y78875D01*
X61487Y79026D01*
X61335Y79392D01*
X60892Y79835D01*
X60313Y80075D01*
D02*
G37*
G36*
X66976Y79764D02*
X66462D01*
X65988Y79567D01*
X65625Y79204D01*
X65428Y78729D01*
Y78216D01*
X65625Y77741D01*
X65988Y77378D01*
X66462Y77181D01*
X66976D01*
X67451Y77378D01*
X67999Y77219D01*
X68002Y77213D01*
X68365Y76850D01*
X68840Y76654D01*
X69353D01*
X69828Y76850D01*
X70191Y77213D01*
X70388Y77688D01*
Y78202D01*
X70191Y78676D01*
X69828Y79040D01*
X69353Y79236D01*
X68840D01*
X68365Y79040D01*
X67817Y79198D01*
X67814Y79204D01*
X67451Y79567D01*
X66976Y79764D01*
D02*
G37*
%LPD*%
D55*
X169500Y95000D02*
D03*
Y105000D02*
D03*
Y115000D02*
D03*
Y125000D02*
D03*
Y135000D02*
D03*
Y145000D02*
D03*
D57*
X162500Y12500D02*
D03*
Y162500D02*
D03*
X12500Y12500D02*
D03*
Y162500D02*
D03*
D58*
X22691Y78010D02*
X24681Y80000D01*
X27889D01*
X58793Y24293D02*
Y36032D01*
X56919Y22419D02*
X58793Y24293D01*
X54974Y23809D02*
X57403Y26238D01*
X55297Y30010D02*
X55429D01*
X53819Y28532D02*
X55297Y30010D01*
X59261Y36500D02*
X80000D01*
X57403Y26238D02*
Y39532D01*
X57871Y40000D02*
X67523D01*
X58793Y36032D02*
X59261Y36500D01*
X57403Y39532D02*
X57871Y40000D01*
X51468Y28532D02*
X53819D01*
X39845Y82158D02*
X42343Y79659D01*
X44288D01*
X48890Y112924D02*
X53656Y117691D01*
X77472Y117505D02*
X84500Y124533D01*
X67200Y117691D02*
X67387Y117505D01*
X53656Y117691D02*
X67200D01*
X67387Y117505D02*
X77472D01*
X100309Y93800D02*
X100809Y93300D01*
X100309Y100200D02*
X102500Y102391D01*
X102000Y94500D02*
X102004Y94496D01*
X104496D01*
X100809Y89691D02*
Y93300D01*
X100309Y93800D02*
Y100200D01*
X104496Y94496D02*
X107917Y97917D01*
X39787Y124029D02*
X39906D01*
X41190Y122745D01*
X41755D02*
X43905Y120595D01*
X41190Y122745D02*
X41755D01*
X42145Y118536D02*
Y118699D01*
X42610Y125890D02*
X45500Y123000D01*
X43905Y95429D02*
Y120595D01*
X45500Y95058D02*
Y123000D01*
X32500Y127000D02*
X34000Y128500D01*
X41500Y82468D02*
X42063Y81906D01*
X44488D01*
X69498Y54110D02*
X77332D01*
X57908Y65767D02*
X67809Y55866D01*
X63625Y57659D02*
Y57875D01*
Y57659D02*
X66366Y54918D01*
X67809Y55800D02*
Y55866D01*
Y55800D02*
X69498Y54110D01*
X40648Y65767D02*
X57908D01*
X61000Y60500D02*
X63625Y57875D01*
X72974Y66858D02*
X73726Y66106D01*
X80025Y66313D02*
X81422D01*
X82424Y64924D02*
X82500Y65000D01*
X80600Y64924D02*
X82424D01*
X80393Y64717D02*
X80600Y64924D01*
X69026Y67474D02*
X71784Y64717D01*
X79818Y66106D02*
X80025Y66313D01*
X73726Y66106D02*
X79818D01*
X71784Y64717D02*
X80393D01*
X81422Y66313D02*
X83109Y68000D01*
X45704Y84052D02*
X46865D01*
X45480Y84276D02*
X45704Y84052D01*
X45000Y87000D02*
Y94558D01*
X46865Y84052D02*
X46916Y84000D01*
X47024D01*
X45000Y94558D02*
X45500Y95058D01*
X79667Y76401D02*
Y78667D01*
X79633Y76367D02*
X79667Y76401D01*
Y78667D02*
X80809Y79809D01*
X79500Y72000D02*
X79500D01*
X76000Y75500D02*
X79500Y72000D01*
X76000Y75500D02*
Y81000D01*
X81000Y86000D01*
X77390Y76076D02*
X80835Y72630D01*
X77390Y76076D02*
Y79890D01*
X79118Y81618D01*
X76772Y119196D02*
Y133674D01*
X86500Y124500D02*
Y165000D01*
X76500Y133946D02*
Y134000D01*
Y133946D02*
X76772Y133674D01*
X74309Y119196D02*
X76772D01*
X79500Y117500D02*
X86500Y124500D01*
X84500Y124533D02*
Y139500D01*
X79500Y110918D02*
Y117500D01*
X109307Y132700D02*
X113706Y137098D01*
X109307Y118342D02*
Y132700D01*
X113706Y137098D02*
Y138564D01*
X113821Y138679D01*
X121000Y90500D02*
Y138000D01*
X119213Y104713D02*
Y135787D01*
X114000Y99500D02*
X119213Y104713D01*
X132169Y135669D02*
X134331D01*
X139481Y130519D01*
X130500Y134000D02*
X132169Y135669D01*
X123000Y129000D02*
X143000Y149000D01*
X125619Y147653D02*
X138390Y160424D01*
X123051Y149051D02*
X135000Y161000D01*
X138390Y160424D02*
Y163610D01*
X139481Y97478D02*
X145000Y91958D01*
X139481Y97478D02*
Y130519D01*
X145000Y81000D02*
Y91958D01*
X87704Y114801D02*
X106520Y133617D01*
X106512Y110488D02*
X107917Y109083D01*
X108203Y111188D02*
X109307Y110084D01*
X104821Y109787D02*
X106000Y108609D01*
X108203Y111188D02*
Y117238D01*
X107917Y97917D02*
Y109083D01*
X102500Y102391D02*
Y113500D01*
X104191Y110419D02*
Y110558D01*
Y110419D02*
X104821Y109788D01*
Y109787D02*
Y109788D01*
X87199Y117500D02*
X91500Y121801D01*
Y127000D01*
X85199Y114801D02*
X87704D01*
X106520Y133617D02*
Y139922D01*
X83500Y116500D02*
X85199Y114801D01*
X67331Y106331D02*
X76879D01*
X66763Y107729D02*
X76311D01*
X81000Y110452D02*
Y116500D01*
X76879Y106331D02*
X81000Y110452D01*
X76311Y107729D02*
X79500Y110918D01*
X47492Y113503D02*
X53489Y119500D01*
X74005D01*
X74309Y119196D01*
X140443Y66036D02*
X146490Y72083D01*
X145490Y93434D02*
Y117510D01*
X146490Y72083D02*
Y92434D01*
X145490Y93434D02*
X146490Y92434D01*
X142000Y121000D02*
X145490Y117510D01*
X140809Y77014D02*
Y80000D01*
X139500Y85000D02*
X142000Y87500D01*
Y88866D01*
X142047Y88913D01*
X127395Y85000D02*
X139500D01*
X142047Y88913D02*
Y90147D01*
X142000Y90194D02*
Y92500D01*
Y90194D02*
X142047Y90147D01*
X118000Y87500D02*
X121000Y90500D01*
X116000Y82500D02*
X118000Y84500D01*
Y87500D01*
X116500Y87000D02*
Y98500D01*
X111118Y81618D02*
X116500Y87000D01*
X140809Y77014D02*
X141000Y76823D01*
Y74000D02*
Y76823D01*
X138109Y72416D02*
X139416D01*
X136409Y70717D02*
X138109Y72416D01*
X139416D02*
X141000Y74000D01*
X133000Y58593D02*
X138373Y63966D01*
X139570D02*
X140443Y64839D01*
Y66036D01*
X138373Y63966D02*
X139570D01*
X133000Y54000D02*
Y58593D01*
X122204Y79809D02*
X127395Y85000D01*
X127035Y72965D02*
X130000Y70000D01*
X127035Y72965D02*
Y73000D01*
X18831Y73669D02*
Y134331D01*
X21000Y74500D02*
Y79032D01*
X23968Y82000D01*
X16000Y72500D02*
Y81000D01*
X18831Y134331D02*
X46000Y161500D01*
X18831Y73669D02*
X30000Y62500D01*
X36158Y77589D02*
Y79708D01*
X36222Y79772D01*
X34334Y75765D02*
X36158Y77589D01*
X30047Y82158D02*
X39845D01*
X41500Y82468D02*
Y93024D01*
X27923Y82000D02*
X42508Y96584D01*
Y118172D01*
X27889Y80000D02*
X30047Y82158D01*
X23968Y82000D02*
X27923D01*
X25687Y76456D02*
X26935D01*
X25572Y76572D02*
X25687Y76456D01*
X26935D02*
X39776Y63615D01*
X41385D01*
X34334Y72082D02*
Y75765D01*
Y72082D02*
X40648Y65767D01*
X41385Y63615D02*
X41500Y63500D01*
X56041Y74390D02*
X70818D01*
X69026Y67474D02*
Y71974D01*
X55489Y71000D02*
X67335D01*
X70818Y74390D02*
X72974Y72233D01*
Y66858D02*
Y72233D01*
X68000Y73000D02*
X69026Y71974D01*
X48890Y77599D02*
X55489Y71000D01*
X50809Y29191D02*
X51468Y28532D01*
X48951Y40000D02*
X49419Y39532D01*
Y29468D02*
Y39532D01*
X27500Y40000D02*
X48951D01*
X28500Y42500D02*
X50341D01*
X50809Y29191D02*
Y42032D01*
X50341Y42500D02*
X50809Y42032D01*
X48951Y29000D02*
X49419Y29468D01*
X39000Y29000D02*
X48951D01*
X42191Y23809D02*
X54974D01*
X40000Y26000D02*
X42191Y23809D01*
X38000Y24500D02*
X40081Y22419D01*
X56919D01*
X71500Y20000D02*
X83500Y8000D01*
X31500Y20000D02*
X71500D01*
X86500Y64500D02*
Y65836D01*
X85000Y63000D02*
X86500Y64500D01*
X81500Y63000D02*
X85000D01*
X87000Y61500D02*
X88809Y63309D01*
Y64500D01*
X83109Y68000D02*
X95804D01*
X97087Y66718D01*
X99000Y64215D02*
X115914Y47301D01*
X97196Y69804D02*
X99000Y68000D01*
Y64215D02*
Y68000D01*
X89696Y69804D02*
X97196D01*
X79500Y72000D02*
X80561Y70939D01*
X86071D01*
X87132Y72000D01*
X99000D01*
X127490Y43510D01*
X51669Y78762D02*
X56041Y74390D01*
X50279Y78186D02*
X55465Y73000D01*
X68000D01*
X68000Y96720D02*
X69918Y94802D01*
X76902D01*
X81000Y86000D02*
X90000D01*
X24000Y27500D02*
Y49000D01*
X30000Y55000D01*
X24000Y27500D02*
X31500Y20000D01*
X38000Y28000D02*
X39000Y29000D01*
X38000Y24500D02*
Y28000D01*
X26110Y41390D02*
Y45110D01*
Y41390D02*
X27500Y40000D01*
X30000Y55000D02*
Y62500D01*
X40535Y60500D02*
X61000D01*
X37535Y63500D02*
X40535Y60500D01*
X58891Y59000D02*
X65196Y52696D01*
X44697Y49500D02*
Y58532D01*
X45165Y59000D01*
X58891D01*
X44000Y47500D02*
X45500D01*
X43006Y48494D02*
Y58532D01*
Y48494D02*
X44000Y47500D01*
X42538Y59000D02*
X43006Y58532D01*
X36500Y59000D02*
X42538D01*
X45500Y47500D02*
X46388Y48388D01*
Y57032D01*
X46856Y57500D02*
X58000D01*
X46388Y57032D02*
X46856Y57500D01*
X58000D02*
X65000Y50500D01*
X79032D02*
X79500Y50032D01*
Y41500D02*
Y50032D01*
X65000Y50500D02*
X79032D01*
X90885Y53115D02*
X91000Y53000D01*
X89576Y53115D02*
X90885D01*
X83191Y59500D02*
X89576Y53115D01*
X77332Y54110D02*
X78309Y55087D01*
X115914Y47301D02*
X116036D01*
X116337Y47000D02*
X116500D01*
X116036Y47301D02*
X116337Y47000D01*
X97087Y61913D02*
Y66718D01*
X110956Y47044D02*
Y48044D01*
Y47044D02*
X111000Y47000D01*
X97087Y61913D02*
X110956Y48044D01*
X148039Y31961D02*
Y35461D01*
X133000Y50500D02*
Y54000D01*
Y50500D02*
X148039Y35461D01*
X133000Y40000D02*
Y50500D01*
X101000Y8000D02*
X133000Y40000D01*
X80835Y72630D02*
X85370D01*
X128118Y82885D02*
X128233Y83000D01*
X127245Y82885D02*
X128118D01*
X122780Y78419D02*
X127245Y82885D01*
X79118Y81618D02*
X111118D01*
X80809Y79809D02*
X122204D01*
X83024Y78419D02*
X122780D01*
X82556Y77951D02*
X83024Y78419D01*
X89000Y76691D02*
X125809D01*
X127500Y75000D01*
X86000D02*
X125034D01*
X126424Y73610D01*
X82500Y76919D02*
X82556Y76976D01*
Y77951D01*
X127500Y75000D02*
X129500D01*
X126424Y73610D02*
X127035Y73000D01*
X126424Y73610D02*
X126424D01*
X92497Y56503D02*
Y65188D01*
X92500Y65191D01*
X95000Y64500D02*
X95194Y64694D01*
Y65076D02*
X95309Y65191D01*
X95194Y64694D02*
Y65076D01*
X95000Y57500D02*
Y64500D01*
Y57500D02*
X108510Y43990D01*
X117599D01*
X92497Y56503D02*
X106500Y42500D01*
X118837D01*
X93000Y10500D02*
Y40542D01*
X93468Y41010D02*
X126617D01*
X93000Y40542D02*
X93468Y41010D01*
X68523Y39000D02*
X80000D01*
X67523Y40000D02*
X68523Y39000D01*
X119641Y43304D02*
X119804D01*
X118837Y42500D02*
X119641Y43304D01*
X118609Y45000D02*
X123500D01*
X117599Y43990D02*
X118609Y45000D01*
X118071Y140500D02*
X119379Y139192D01*
X119808D02*
X121000Y138000D01*
X118000Y140500D02*
X118071D01*
X119379Y139192D02*
X119808D01*
X114000Y89000D02*
Y99500D01*
X108309Y83309D02*
X114000Y89000D01*
X103500Y83309D02*
X108309D01*
X106000Y86000D02*
Y93500D01*
X109307Y96807D02*
Y110084D01*
X106000Y93500D02*
X109307Y96807D01*
X108203Y117238D02*
X109307Y118342D01*
X105000Y85000D02*
X106000Y86000D01*
X101500Y85000D02*
X105000D01*
X100000Y86500D02*
X101500Y85000D01*
X103500Y96578D02*
X106000Y99078D01*
X103500Y96500D02*
Y96578D01*
X106000Y99078D02*
Y108609D01*
X100809Y89691D02*
X103500Y87000D01*
X102500Y113500D02*
X107917Y118917D01*
Y136417D01*
X119704Y151699D02*
X122351Y149051D01*
X118296Y151699D02*
X119704D01*
X122351Y149051D02*
X123051D01*
X106520Y139922D02*
X118296Y151699D01*
X88199Y131813D02*
Y139500D01*
X88500Y124000D02*
Y131511D01*
X88199Y131813D02*
X88500Y131511D01*
X48890Y77599D02*
Y112924D01*
X81000Y116500D02*
X88500Y124000D01*
X50279Y91245D02*
X66763Y107729D01*
X47492Y84468D02*
Y113503D01*
X47024Y84000D02*
X47492Y84468D01*
X41500Y93024D02*
X43905Y95429D01*
X42145Y118536D02*
X42508Y118172D01*
X39110Y125890D02*
X42610D01*
X37000Y94968D02*
Y103000D01*
X40809Y106809D02*
Y111500D01*
X37000Y103000D02*
X40809Y106809D01*
X36532Y94500D02*
X37000Y94968D01*
X33968Y94500D02*
X36532D01*
X21000Y74500D02*
X36500Y59000D01*
X81968Y61500D02*
X87000D01*
X16000Y72500D02*
X17500Y71000D01*
X26110Y45110D02*
X28000Y47000D01*
X32500Y95968D02*
Y96000D01*
Y95968D02*
X33968Y94500D01*
X80000Y36500D02*
X84000Y40500D01*
Y47965D01*
X80000Y51965D02*
X84000Y47965D01*
X81500Y52431D02*
X85500Y48431D01*
Y36000D02*
Y48431D01*
Y36000D02*
X91000Y30500D01*
X83500Y8000D02*
X101000D01*
X126617Y41010D02*
X127490Y41883D01*
Y43510D01*
X148039Y31961D02*
X149500Y30500D01*
X51669Y90669D02*
X67331Y106331D01*
X50279Y78186D02*
Y91245D01*
X51669Y78762D02*
Y90669D01*
X46000Y161500D02*
X49500D01*
X34000Y128500D02*
Y141500D01*
X119153Y147653D02*
X125619D01*
X107917Y136417D02*
X119153Y147653D01*
X131500Y170500D02*
X138390Y163610D01*
X144500Y29500D02*
X146000Y31000D01*
Y33000D01*
X135000Y29500D02*
X144500D01*
X123000Y121293D02*
Y129000D01*
X37000Y128000D02*
X39110Y125890D01*
X37000Y128000D02*
Y149500D01*
X81500Y61032D02*
X81968Y61500D01*
X81500Y52431D02*
Y61032D01*
X80000Y61500D02*
X81500Y63000D01*
X91000Y26500D02*
Y30500D01*
X80000Y51965D02*
Y61500D01*
X78500Y173000D02*
X86500Y165000D01*
X37500Y63500D02*
X37535D01*
D59*
X22691Y78010D02*
D03*
X25572Y76572D02*
D03*
X44288Y79659D02*
D03*
X102000Y94500D02*
D03*
X39787Y124029D02*
D03*
X42145Y118699D02*
D03*
X32500Y127000D02*
D03*
X44488Y81906D02*
D03*
X66366Y54918D02*
D03*
X45000Y87000D02*
D03*
X79633Y76367D02*
D03*
X76772Y119196D02*
D03*
X119213Y135787D02*
D03*
X135000Y161000D02*
D03*
X106512Y110488D02*
D03*
X104191Y110558D02*
D03*
X83500Y116500D02*
D03*
X87199Y117500D02*
D03*
X140809Y80000D02*
D03*
X142000Y92500D02*
D03*
X136409Y70717D02*
D03*
X130000Y70000D02*
D03*
X67335Y71000D02*
D03*
X111000Y102500D02*
D03*
X88809Y64500D02*
D03*
X89696Y69804D02*
D03*
X68000Y96720D02*
D03*
X76902Y94802D02*
D03*
X90000Y86000D02*
D03*
X40000Y26000D02*
D03*
X41500Y63500D02*
D03*
X65196Y52696D02*
D03*
X83191Y59500D02*
D03*
X78309Y55087D02*
D03*
X111000Y47000D02*
D03*
X116500D02*
D03*
X133000Y54000D02*
D03*
X85370Y72630D02*
D03*
X128233Y83000D02*
D03*
X89000Y76691D02*
D03*
X86000Y75000D02*
D03*
X86500Y65836D02*
D03*
X82500Y76919D02*
D03*
X92500Y65191D02*
D03*
X95309D02*
D03*
X91000Y53000D02*
D03*
X79500Y41500D02*
D03*
X80000Y39000D02*
D03*
X119804Y43304D02*
D03*
X123500Y45000D02*
D03*
X118000Y140500D02*
D03*
X103500Y83309D02*
D03*
Y96500D02*
D03*
X100000Y86500D02*
D03*
X103500Y87000D02*
D03*
X88199Y139500D02*
D03*
X40809Y111500D02*
D03*
X66000Y110500D02*
D03*
X82500Y65000D02*
D03*
X44697Y49500D02*
D03*
X17500Y71000D02*
D03*
X30000Y62500D02*
D03*
X149500Y30500D02*
D03*
X84500Y139500D02*
D03*
X53500Y102500D02*
D03*
X91500Y127000D02*
D03*
X116500Y98500D02*
D03*
X129500Y75000D02*
D03*
X142000Y121000D02*
D03*
X113821Y138679D02*
D03*
X131500Y170500D02*
D03*
X122945Y121293D02*
D03*
X49500Y161500D02*
D03*
X146000Y33000D02*
D03*
X135000Y29500D02*
D03*
X34000Y141500D02*
D03*
X116000Y82500D02*
D03*
X37000Y149500D02*
D03*
X91000Y26500D02*
D03*
X78500Y173000D02*
D03*
X37500Y63500D02*
D03*
D60*
X55429Y30010D02*
D03*
X45480Y84276D02*
D03*
X16000Y81000D02*
D03*
X36222Y79772D02*
D03*
X28500Y42500D02*
D03*
X28000Y47000D02*
D03*
X32500Y96000D02*
D03*
X93000Y10500D02*
D03*
D61*
X130500Y134000D02*
D03*
X76500D02*
D03*
X145000Y81000D02*
D03*
D62*
X143000Y149000D02*
D03*
D63*
X77000Y86000D02*
D03*
M02*
