M48
;Layer_Color=9474304
;FILE_FORMAT=4:4
METRIC,TZ
;TYPE=PLATED
T01F00S00C0.2540
T02F00S00C0.3560
T03F00S00C0.9000
T04F00S00C3.4000
%
T01
X101600Y66040
X101103Y97017
X95250Y93980
X137160
X133350Y77470
X139700Y30480
X113530Y125730
X71120
X69850Y142240
X168910Y139700
X165597Y133847
X198905Y139921
X213845Y135890
X219710
X231140Y134620
X240030Y132080
X243055Y99060
X229385Y95671
X203200Y99060
X201930Y105410
X231140Y67310
X267970Y93980
X281940Y119380
X295910
X307340
X313690Y114300
X304303Y109993
X308610Y133350
X318770
X337820Y137160
X341630Y86360
X342900Y74930
X370840Y83820
X379730Y77470
X380490Y97005
Y104140
X381000Y115570
Y123190
X363220Y198120
X360680Y234950
X338066Y258595
X312420Y264160
X325120Y276860
X312280Y308084
X285750Y304800
Y298450
X262890Y302260
X254000Y295910
X247650
X241300
X221485Y298450
X212090Y295910
X190705Y293370
X193040Y303530
X195580Y284480
X173990Y292100
X168910
X163830
X157480
X167640Y280670
X172720Y245670
X167267Y227608
X168745Y199321
X175260Y198905
X171030Y180340
X202085Y193791
X209550Y195375
X218440Y190500
X216840Y184480
X227827Y177303
X225575Y163830
X219710Y167222
X209550Y165100
X211305Y151130
X189230Y143510
X184150
X179070
X234950Y165585
X242085
X265430Y160020
X302260Y166370
X297180Y180340
X294640Y209550
X308620Y207010
X318770Y199390
X325120Y203685
X325711Y210820
X328930Y190500
X262890Y211605
Y220980
Y227330
Y233680
X262640Y239727
X262890Y245110
Y254000
X281940Y260350
X287020Y270510
X270541Y280639
X264645Y280817
X240030Y251460
Y245110
X243055Y229360
X250695Y229641
X254000Y219710
X252730Y212090
X228600Y218440
X217170Y228600
X210820
X194310Y218440
X195331Y240798
X226060Y194795
X295910Y250190
X302801Y344899
X299720Y356870
X309880
X289105Y352245
X302260Y381000
X363220Y378460
X342900Y408940
X334010Y433070
X257810Y411480
X245110Y354330
X231140
X224025
X214630
X228600Y336550
X232410Y322580
X163830Y340135
X199390Y439420
X360680Y328930
Y307340
X139700Y337820
X125730Y334010
X99973Y333735
X101600Y324075
X102690Y314780
X100330Y309880
X101600Y303530
X107047Y301495
X103655Y283210
X97790Y279400
X67310Y283210
X63500Y266700
X76200Y243840
X100330Y245110
X115520Y218663
X115570Y208280
Y203200
X105410Y161290
X95250
X76200Y158750
X67310Y196850
X59690Y195580
X44450Y180340
X75110Y302440
X74930Y308417
X68580Y317500
X82550Y322580
X80010Y335280
X86360Y359410
Y368300
X93980Y379730
X99060Y356254
X119380Y355600
X125730Y410210
X135890Y260350
T02
X67310Y74930
X72390Y107950
X71120Y119380
X137697Y73660
X137160Y67160
X116840Y35560
X175260Y58420
X236220Y26670
X200660Y172925
X180340Y181395
X179070Y217170
X172033Y211025
X165100Y222250
X156210Y223745
X165100Y233680
X159323Y198120
X152400Y199390
X145975Y199390
X141475Y217170
X142240Y232410
X115570Y213360
X113030Y182880
Y171450
X114300Y161290
X101864Y175524
X73660Y196850
X40640Y205740
X82550Y243840
T03
X379730Y241300
X405130
Y266700
Y292100
Y317500
Y342900
Y368300
X379730
Y342900
Y317500
Y292100
Y266700
X430530
Y292100
Y317500
Y342900
Y368300
Y241300
T04
X31750Y31750
X412750
Y412750
X31750
M30
