G04*
G04 #@! TF.GenerationSoftware,Altium Limited,Altium Designer,24.2.2 (26)*
G04*
G04 Layer_Color=8388736*
%FSLAX25Y25*%
%MOIN*%
G70*
G04*
G04 #@! TF.SameCoordinates,358856B4-C3BF-47AD-8A36-AC4EE67BB0C9*
G04*
G04*
G04 #@! TF.FilePolarity,Negative*
G04*
G01*
G75*
G04:AMPARAMS|DCode=15|XSize=43.31mil|YSize=23.62mil|CornerRadius=2.01mil|HoleSize=0mil|Usage=FLASHONLY|Rotation=180.000|XOffset=0mil|YOffset=0mil|HoleType=Round|Shape=RoundedRectangle|*
%AMROUNDEDRECTD15*
21,1,0.04331,0.01961,0,0,180.0*
21,1,0.03929,0.02362,0,0,180.0*
1,1,0.00402,-0.01965,0.00980*
1,1,0.00402,0.01965,0.00980*
1,1,0.00402,0.01965,-0.00980*
1,1,0.00402,-0.01965,-0.00980*
%
%ADD15ROUNDEDRECTD15*%
%ADD16R,0.03937X0.02953*%
%ADD17R,0.07103X0.05328*%
%ADD18R,0.03591X0.03772*%
%ADD19R,0.03985X0.04369*%
%ADD25R,0.02756X0.03740*%
%ADD26R,0.02756X0.02756*%
%ADD27R,0.03963X0.03812*%
%ADD29R,0.02953X0.03937*%
%ADD30R,0.03937X0.10630*%
%ADD31R,0.02362X0.06693*%
%ADD32R,0.02756X0.02756*%
%ADD34R,0.04749X0.03765*%
%ADD35R,0.04469X0.04182*%
%ADD36R,0.02978X0.03394*%
%ADD37R,0.04560X0.04182*%
%ADD38R,0.03394X0.02978*%
%ADD39R,0.06693X0.02362*%
%ADD40R,0.10630X0.03937*%
%ADD44R,0.01772X0.05433*%
%ADD45R,0.05610X0.06102*%
%ADD46R,0.03937X0.07480*%
%ADD47R,0.07087X0.07480*%
%ADD48R,0.06496X0.05118*%
%ADD50R,0.02559X0.03347*%
%ADD52R,0.01378X0.01575*%
%ADD53O,0.01981X0.07887*%
%ADD54O,0.07887X0.01981*%
%ADD55R,0.02769X0.04540*%
%ADD56R,0.11430X0.04737*%
%ADD57R,0.07493X0.03162*%
%ADD58R,0.10446X0.07296*%
%ADD59R,0.02178X0.04147*%
%ADD60R,0.04816X0.09540*%
%ADD61R,0.05524X0.05131*%
%ADD62R,0.04737X0.02375*%
%ADD63R,0.03162X0.07493*%
%ADD64R,0.04737X0.11430*%
%ADD65R,0.03950X0.04540*%
%ADD66R,0.03162X0.06706*%
%ADD67C,0.06706*%
%ADD68C,0.20485*%
%ADD69R,0.06706X0.06706*%
%ADD70C,0.02769*%
%ADD71C,0.02202*%
%ADD72C,0.06126*%
%ADD73C,0.07701*%
D15*
X136618Y123760D02*
D03*
Y127500D02*
D03*
Y131240D02*
D03*
X126382D02*
D03*
Y123760D02*
D03*
D16*
X119500Y129953D02*
D03*
Y124047D02*
D03*
X126500Y29547D02*
D03*
Y35453D02*
D03*
X110500Y29594D02*
D03*
Y35500D02*
D03*
X118500Y29547D02*
D03*
Y35453D02*
D03*
X149500Y73047D02*
D03*
Y78953D02*
D03*
X137000Y92547D02*
D03*
Y98453D02*
D03*
X129000Y92547D02*
D03*
Y98453D02*
D03*
X121000Y92547D02*
D03*
Y98453D02*
D03*
X29500Y136047D02*
D03*
Y141953D02*
D03*
D17*
X136500Y116825D02*
D03*
Y107176D02*
D03*
D18*
X111500Y124138D02*
D03*
Y129862D02*
D03*
D19*
X118500Y114851D02*
D03*
Y108149D02*
D03*
X39211Y137038D02*
D03*
Y143741D02*
D03*
X48000Y137000D02*
D03*
Y143703D02*
D03*
D25*
X137823Y30484D02*
D03*
X143138D02*
D03*
D26*
X143190Y54087D02*
D03*
X137678D02*
D03*
X130831Y114888D02*
D03*
X125319D02*
D03*
X101756Y34500D02*
D03*
X96244D02*
D03*
X66756Y148000D02*
D03*
X61244D02*
D03*
D27*
X33642Y32000D02*
D03*
X39358D02*
D03*
X141142Y154500D02*
D03*
X146858D02*
D03*
D29*
X99953Y26500D02*
D03*
X94047D02*
D03*
X133047Y75500D02*
D03*
X138953D02*
D03*
X132547Y84000D02*
D03*
X138453D02*
D03*
X89453Y14000D02*
D03*
X83547D02*
D03*
D30*
X108610Y6402D02*
D03*
X147784D02*
D03*
D31*
X115894Y19000D02*
D03*
X120815D02*
D03*
X125736D02*
D03*
X130657D02*
D03*
X135579D02*
D03*
X140500D02*
D03*
D32*
X98000Y9244D02*
D03*
Y14756D02*
D03*
X33000Y53744D02*
D03*
Y59256D02*
D03*
X41000Y53744D02*
D03*
Y59256D02*
D03*
Y48756D02*
D03*
Y43244D02*
D03*
D34*
X69161Y129922D02*
D03*
Y121851D02*
D03*
X98511Y129836D02*
D03*
Y121765D02*
D03*
D35*
X21710Y88500D02*
D03*
X15290D02*
D03*
X14210Y77000D02*
D03*
X7790D02*
D03*
X14710Y100000D02*
D03*
X8290D02*
D03*
D36*
X58562Y117000D02*
D03*
X53438D02*
D03*
X124062Y86500D02*
D03*
X118938D02*
D03*
X36438Y76500D02*
D03*
X41562D02*
D03*
D37*
X74756Y16000D02*
D03*
X68244D02*
D03*
X74756Y7000D02*
D03*
X68244D02*
D03*
D38*
X41500Y82938D02*
D03*
Y88062D02*
D03*
X33500D02*
D03*
Y82938D02*
D03*
D39*
X19000Y140000D02*
D03*
Y135079D02*
D03*
Y130157D02*
D03*
Y125236D02*
D03*
Y120315D02*
D03*
X18957Y34197D02*
D03*
Y39118D02*
D03*
Y44039D02*
D03*
Y48961D02*
D03*
Y53882D02*
D03*
Y58803D02*
D03*
D40*
X6402Y113031D02*
D03*
Y147283D02*
D03*
X6358Y26913D02*
D03*
Y66087D02*
D03*
D44*
X46677Y18500D02*
D03*
X44118D02*
D03*
X41559D02*
D03*
X39000D02*
D03*
X36441D02*
D03*
D45*
X51352Y18165D02*
D03*
X31766D02*
D03*
D46*
X47661Y8028D02*
D03*
D47*
X37031D02*
D03*
D48*
X54847D02*
D03*
X28272D02*
D03*
D50*
X3327Y91354D02*
D03*
X6673D02*
D03*
X3327Y85646D02*
D03*
X6673D02*
D03*
D52*
X124146Y108500D02*
D03*
X129854D02*
D03*
D53*
X104122Y105724D02*
D03*
X102154D02*
D03*
X100185D02*
D03*
X98216D02*
D03*
X96248D02*
D03*
X94279D02*
D03*
X92311D02*
D03*
X90342D02*
D03*
X88374D02*
D03*
X86405D02*
D03*
X84437D02*
D03*
X82468D02*
D03*
X80500D02*
D03*
X78531D02*
D03*
X76563D02*
D03*
X74594D02*
D03*
X72626D02*
D03*
X70657D02*
D03*
X68689D02*
D03*
X66720D02*
D03*
X64752D02*
D03*
X62783D02*
D03*
X60815D02*
D03*
X58846D02*
D03*
X56878D02*
D03*
Y46276D02*
D03*
X58846D02*
D03*
X60815D02*
D03*
X62783D02*
D03*
X64752D02*
D03*
X66720D02*
D03*
X68689D02*
D03*
X70657D02*
D03*
X72626D02*
D03*
X74594D02*
D03*
X76563D02*
D03*
X78531D02*
D03*
X80500D02*
D03*
X82468D02*
D03*
X84437D02*
D03*
X86405D02*
D03*
X88374D02*
D03*
X90342D02*
D03*
X92311D02*
D03*
X94279D02*
D03*
X96248D02*
D03*
X98216D02*
D03*
X100185D02*
D03*
X102154D02*
D03*
X104122D02*
D03*
D54*
X50776Y99622D02*
D03*
Y97654D02*
D03*
Y95685D02*
D03*
Y93717D02*
D03*
Y91748D02*
D03*
Y89780D02*
D03*
Y87811D02*
D03*
Y85843D02*
D03*
Y83874D02*
D03*
Y81906D02*
D03*
Y79937D02*
D03*
Y77969D02*
D03*
Y76000D02*
D03*
Y74032D02*
D03*
Y72063D02*
D03*
Y70095D02*
D03*
Y68126D02*
D03*
Y66158D02*
D03*
Y64189D02*
D03*
Y62221D02*
D03*
Y60252D02*
D03*
Y58284D02*
D03*
Y56315D02*
D03*
Y54347D02*
D03*
Y52378D02*
D03*
X110224D02*
D03*
Y54347D02*
D03*
Y56315D02*
D03*
Y58284D02*
D03*
Y60252D02*
D03*
Y62221D02*
D03*
Y64189D02*
D03*
Y66158D02*
D03*
Y68126D02*
D03*
Y70095D02*
D03*
Y72063D02*
D03*
Y74032D02*
D03*
Y76000D02*
D03*
Y77969D02*
D03*
Y79937D02*
D03*
Y81906D02*
D03*
Y83874D02*
D03*
Y85843D02*
D03*
Y87811D02*
D03*
Y89780D02*
D03*
Y91748D02*
D03*
Y93717D02*
D03*
Y95685D02*
D03*
Y97654D02*
D03*
Y99622D02*
D03*
D55*
X35000Y106965D02*
D03*
X32441Y115035D02*
D03*
X37559D02*
D03*
D56*
X168811Y56165D02*
D03*
Y26835D02*
D03*
D57*
X156213Y48882D02*
D03*
Y43961D02*
D03*
Y39039D02*
D03*
Y34118D02*
D03*
D58*
X140500Y42500D02*
D03*
D59*
X144339Y36791D02*
D03*
X141779D02*
D03*
X139220D02*
D03*
X136661D02*
D03*
Y48209D02*
D03*
X139220D02*
D03*
X141779D02*
D03*
X144339D02*
D03*
D60*
X84500Y147256D02*
D03*
Y169500D02*
D03*
X94500D02*
D03*
Y147256D02*
D03*
X104500D02*
D03*
Y169500D02*
D03*
X114500D02*
D03*
Y147256D02*
D03*
X124500D02*
D03*
Y169500D02*
D03*
D61*
X80307Y128500D02*
D03*
X87000D02*
D03*
Y122988D02*
D03*
X80307D02*
D03*
D62*
X36563Y128059D02*
D03*
Y125500D02*
D03*
Y122941D02*
D03*
X44437D02*
D03*
Y128059D02*
D03*
D63*
X49382Y156213D02*
D03*
X44461D02*
D03*
X39539D02*
D03*
X34618D02*
D03*
D64*
X56665Y168811D02*
D03*
X27335D02*
D03*
D65*
X90346Y6000D02*
D03*
X83653D02*
D03*
D66*
X140260Y162760D02*
D03*
X147740D02*
D03*
X144000Y170240D02*
D03*
D67*
X159500Y95000D02*
D03*
Y105000D02*
D03*
Y115000D02*
D03*
Y125000D02*
D03*
Y135000D02*
D03*
Y145000D02*
D03*
X149500Y95000D02*
D03*
Y105000D02*
D03*
Y115000D02*
D03*
Y125000D02*
D03*
Y135000D02*
D03*
Y145000D02*
D03*
D68*
X162500Y12500D02*
D03*
Y162500D02*
D03*
X12500Y12500D02*
D03*
Y162500D02*
D03*
D69*
X169500Y145000D02*
D03*
Y135000D02*
D03*
Y125000D02*
D03*
Y115000D02*
D03*
Y105000D02*
D03*
Y95000D02*
D03*
D70*
X40104Y69104D02*
D03*
X62726Y78000D02*
D03*
X79000Y68081D02*
D03*
X71000Y71415D02*
D03*
X54211Y29000D02*
D03*
X54000Y26441D02*
D03*
X26500Y29500D02*
D03*
X67730Y83081D02*
D03*
X65000Y87500D02*
D03*
X46000Y14000D02*
D03*
X61500Y88089D02*
D03*
X65000Y92000D02*
D03*
X60000Y78500D02*
D03*
X57471Y78500D02*
D03*
X56000Y91500D02*
D03*
X28500Y42500D02*
D03*
X45000Y63500D02*
D03*
X55699Y85500D02*
D03*
X29000Y77500D02*
D03*
X44500Y67500D02*
D03*
Y72000D02*
D03*
X28000Y47000D02*
D03*
X32500Y96000D02*
D03*
X69000Y23000D02*
D03*
X93000Y10500D02*
D03*
X70500Y85500D02*
D03*
X16000Y81000D02*
D03*
X45500Y84000D02*
D03*
D71*
X66435Y78473D02*
D03*
X67335Y71000D02*
D03*
X52500Y30500D02*
D03*
X65853Y89609D02*
D03*
X111000Y102500D02*
D03*
X88809Y64500D02*
D03*
X89696Y69804D02*
D03*
X94500Y96500D02*
D03*
Y99000D02*
D03*
X85500Y90000D02*
D03*
X83000D02*
D03*
X69000Y78309D02*
D03*
X68000Y96720D02*
D03*
X76902Y94802D02*
D03*
X90000Y86000D02*
D03*
X40000Y26000D02*
D03*
X39804Y38196D02*
D03*
X37500Y37000D02*
D03*
X27500Y56000D02*
D03*
X41500Y63500D02*
D03*
X65196Y52696D02*
D03*
X83191Y59500D02*
D03*
X78309Y55087D02*
D03*
X104500Y63000D02*
D03*
X111000Y47000D02*
D03*
X116500D02*
D03*
X121500Y52500D02*
D03*
X125500D02*
D03*
X133000Y54000D02*
D03*
X119000Y65500D02*
D03*
X117000Y71000D02*
D03*
X143000Y78000D02*
D03*
X85370Y72630D02*
D03*
X128233Y83000D02*
D03*
X89000Y76691D02*
D03*
X86000Y75000D02*
D03*
X86500Y65836D02*
D03*
X79561Y76296D02*
D03*
X82500Y76919D02*
D03*
X99500Y83500D02*
D03*
X128000Y80191D02*
D03*
X125500Y78500D02*
D03*
X112500Y117500D02*
D03*
Y120000D02*
D03*
X77000Y112000D02*
D03*
X75081Y115500D02*
D03*
X76000Y119500D02*
D03*
X49500Y131500D02*
D03*
X64500Y133911D02*
D03*
X92500Y65191D02*
D03*
X95309D02*
D03*
X91000Y53000D02*
D03*
X94500Y52000D02*
D03*
X84191Y53500D02*
D03*
X86500D02*
D03*
X95691Y39000D02*
D03*
X105500Y37000D02*
D03*
X90309Y37666D02*
D03*
X79500Y41500D02*
D03*
X80000Y39000D02*
D03*
X121000Y47000D02*
D03*
X119804Y43304D02*
D03*
X123500Y45000D02*
D03*
X150000Y45500D02*
D03*
Y48500D02*
D03*
X149799Y41000D02*
D03*
Y38191D02*
D03*
X133097Y101809D02*
D03*
X123000Y104000D02*
D03*
X118000Y140500D02*
D03*
X122000D02*
D03*
X119213Y135787D02*
D03*
X103500Y83309D02*
D03*
Y96500D02*
D03*
X100000Y86500D02*
D03*
X103500Y87000D02*
D03*
Y89500D02*
D03*
Y92000D02*
D03*
X103402Y94381D02*
D03*
X98699Y90410D02*
D03*
X95691Y90299D02*
D03*
X106512Y110488D02*
D03*
X104191Y110558D02*
D03*
X96500Y139500D02*
D03*
X87199Y117500D02*
D03*
X39000Y140258D02*
D03*
X88199Y139500D02*
D03*
X47000Y140000D02*
D03*
X40000Y119500D02*
D03*
X42145Y118699D02*
D03*
X40000Y127589D02*
D03*
X27000Y125000D02*
D03*
X26500Y111500D02*
D03*
X25000Y105000D02*
D03*
X23500Y77000D02*
D03*
X40809Y111500D02*
D03*
X38500Y110000D02*
D03*
X66000Y110500D02*
D03*
X76500Y86000D02*
D03*
X39500Y122000D02*
D03*
X82500Y65000D02*
D03*
X44697Y49500D02*
D03*
X74500Y56500D02*
D03*
X72500D02*
D03*
X70500D02*
D03*
X45480Y86088D02*
D03*
X26500Y77500D02*
D03*
X17500Y71000D02*
D03*
X28000Y49500D02*
D03*
X30000Y62500D02*
D03*
Y96000D02*
D03*
X149500Y30500D02*
D03*
X134500Y34000D02*
D03*
X68500Y115000D02*
D03*
X66500D02*
D03*
X64500D02*
D03*
X83500Y116500D02*
D03*
X84500Y139500D02*
D03*
X53500Y102500D02*
D03*
X29571Y119071D02*
D03*
X29500Y121424D02*
D03*
X40429Y123929D02*
D03*
X31500Y132000D02*
D03*
X32500Y127000D02*
D03*
X39360Y131392D02*
D03*
X91500Y127000D02*
D03*
X90000Y132500D02*
D03*
X116500Y98500D02*
D03*
X129500Y75000D02*
D03*
X142000Y121000D02*
D03*
X113000Y106500D02*
D03*
X97500Y116500D02*
D03*
X100000D02*
D03*
X95000D02*
D03*
X113821Y138679D02*
D03*
X131500Y170500D02*
D03*
X135000Y161000D02*
D03*
X142000Y92500D02*
D03*
X122945Y121293D02*
D03*
X91000Y139500D02*
D03*
X39500Y96500D02*
D03*
X49500Y161500D02*
D03*
X101500Y162000D02*
D03*
X142000Y129500D02*
D03*
X119000Y150000D02*
D03*
X146000Y33000D02*
D03*
X135000Y29500D02*
D03*
X55000Y12000D02*
D03*
X34000Y145000D02*
D03*
Y141500D02*
D03*
X116000Y82500D02*
D03*
X121504Y81500D02*
D03*
X37000Y149500D02*
D03*
X103500Y119000D02*
D03*
X128000Y109000D02*
D03*
X55000Y133000D02*
D03*
X62000Y115000D02*
D03*
X91000Y26500D02*
D03*
X78500Y173000D02*
D03*
X66500Y55000D02*
D03*
X37500Y63500D02*
D03*
X54000Y37000D02*
D03*
X45500Y80000D02*
D03*
Y82000D02*
D03*
D72*
X103500Y100000D02*
D03*
D73*
X143000Y149000D02*
D03*
M02*
